<svg width="393" height="794" viewBox="0 0 393 794" fill="none" xmlns="http://www.w3.org/2000/svg">
<g opacity="0.3">
<mask id="mask0_3_22920" style="mask-type:alpha" maskUnits="userSpaceOnUse" x="-403" y="0" width="1200" height="794">
<rect x="-403" width="1200" height="794" fill="url(#paint0_radial_3_22920)"/>
</mask>
<g mask="url(#mask0_3_22920)">
<circle cx="4.5" cy="-0.5" r="1.5" fill="#CAC8D4"/>
<circle cx="28.5" cy="-0.5" r="1.5" fill="#CAC8D4"/>
<circle cx="52.5" cy="-0.5" r="1.5" fill="#CAC8D4"/>
<circle cx="76.5" cy="-0.5" r="1.5" fill="#CAC8D4"/>
<circle cx="100.5" cy="-0.5" r="1.5" fill="#CAC8D4"/>
<circle cx="124.5" cy="-0.5" r="1.5" fill="#CAC8D4"/>
<circle cx="148.5" cy="-0.5" r="1.5" fill="#CAC8D4"/>
<circle cx="172.5" cy="-0.5" r="1.5" fill="#CAC8D4"/>
<circle cx="196.5" cy="-0.5" r="1.5" fill="#CAC8D4"/>
<circle cx="220.5" cy="-0.5" r="1.5" fill="#CAC8D4"/>
<circle cx="244.5" cy="-0.5" r="1.5" fill="#CAC8D4"/>
<circle cx="268.5" cy="-0.5" r="1.5" fill="#CAC8D4"/>
<circle cx="292.5" cy="-0.5" r="1.5" fill="#CAC8D4"/>
<circle cx="316.5" cy="-0.5" r="1.5" fill="#CAC8D4"/>
<circle cx="340.5" cy="-0.5" r="1.5" fill="#CAC8D4"/>
<circle cx="364.5" cy="-0.5" r="1.5" fill="#CAC8D4"/>
<circle cx="388.5" cy="-0.5" r="1.5" fill="#CAC8D4"/>
<circle cx="4.5" cy="23.5" r="1.5" fill="#CAC8D4"/>
<circle cx="28.5" cy="23.5" r="1.5" fill="#CAC8D4"/>
<circle cx="52.5" cy="23.5" r="1.5" fill="#CAC8D4"/>
<circle cx="76.5" cy="23.5" r="1.5" fill="#CAC8D4"/>
<circle cx="100.5" cy="23.5" r="1.5" fill="#CAC8D4"/>
<circle cx="124.5" cy="23.5" r="1.5" fill="#CAC8D4"/>
<circle cx="148.5" cy="23.5" r="1.5" fill="#CAC8D4"/>
<circle cx="172.5" cy="23.5" r="1.5" fill="#CAC8D4"/>
<circle cx="196.5" cy="23.5" r="1.5" fill="#CAC8D4"/>
<circle cx="220.5" cy="23.5" r="1.5" fill="#CAC8D4"/>
<circle cx="244.5" cy="23.5" r="1.5" fill="#CAC8D4"/>
<circle cx="268.5" cy="23.5" r="1.5" fill="#CAC8D4"/>
<circle cx="292.5" cy="23.5" r="1.5" fill="#CAC8D4"/>
<circle cx="316.5" cy="23.5" r="1.5" fill="#CAC8D4"/>
<circle cx="340.5" cy="23.5" r="1.5" fill="#CAC8D4"/>
<circle cx="364.5" cy="23.5" r="1.5" fill="#CAC8D4"/>
<circle cx="388.5" cy="23.5" r="1.5" fill="#CAC8D4"/>
<circle cx="4.5" cy="47.5" r="1.5" fill="#CAC8D4"/>
<circle cx="28.5" cy="47.5" r="1.5" fill="#CAC8D4"/>
<circle cx="52.5" cy="47.5" r="1.5" fill="#CAC8D4"/>
<circle cx="76.5" cy="47.5" r="1.5" fill="#CAC8D4"/>
<circle cx="100.5" cy="47.5" r="1.5" fill="#CAC8D4"/>
<circle cx="124.5" cy="47.5" r="1.5" fill="#CAC8D4"/>
<circle cx="148.5" cy="47.5" r="1.5" fill="#CAC8D4"/>
<circle cx="172.5" cy="47.5" r="1.5" fill="#CAC8D4"/>
<circle cx="196.5" cy="47.5" r="1.5" fill="#CAC8D4"/>
<circle cx="220.5" cy="47.5" r="1.5" fill="#CAC8D4"/>
<circle cx="244.5" cy="47.5" r="1.5" fill="#CAC8D4"/>
<circle cx="268.5" cy="47.5" r="1.5" fill="#CAC8D4"/>
<circle cx="292.5" cy="47.5" r="1.5" fill="#CAC8D4"/>
<circle cx="316.5" cy="47.5" r="1.5" fill="#CAC8D4"/>
<circle cx="340.5" cy="47.5" r="1.5" fill="#CAC8D4"/>
<circle cx="364.5" cy="47.5" r="1.5" fill="#CAC8D4"/>
<circle cx="388.5" cy="47.5" r="1.5" fill="#CAC8D4"/>
<circle cx="4.5" cy="71.5" r="1.5" fill="#CAC8D4"/>
<circle cx="28.5" cy="71.5" r="1.5" fill="#CAC8D4"/>
<circle cx="52.5" cy="71.5" r="1.5" fill="#CAC8D4"/>
<circle cx="76.5" cy="71.5" r="1.5" fill="#CAC8D4"/>
<circle cx="100.5" cy="71.5" r="1.5" fill="#CAC8D4"/>
<circle cx="124.5" cy="71.5" r="1.5" fill="#CAC8D4"/>
<circle cx="148.5" cy="71.5" r="1.5" fill="#CAC8D4"/>
<circle cx="172.5" cy="71.5" r="1.5" fill="#CAC8D4"/>
<circle cx="196.5" cy="71.5" r="1.5" fill="#CAC8D4"/>
<circle cx="220.5" cy="71.5" r="1.5" fill="#CAC8D4"/>
<circle cx="244.5" cy="71.5" r="1.5" fill="#CAC8D4"/>
<circle cx="268.5" cy="71.5" r="1.5" fill="#CAC8D4"/>
<circle cx="292.5" cy="71.5" r="1.5" fill="#CAC8D4"/>
<circle cx="316.5" cy="71.5" r="1.5" fill="#CAC8D4"/>
<circle cx="340.5" cy="71.5" r="1.5" fill="#CAC8D4"/>
<circle cx="364.5" cy="71.5" r="1.5" fill="#CAC8D4"/>
<circle cx="388.5" cy="71.5" r="1.5" fill="#CAC8D4"/>
<circle cx="4.5" cy="95.5" r="1.5" fill="#CAC8D4"/>
<circle cx="28.5" cy="95.5" r="1.5" fill="#CAC8D4"/>
<circle cx="52.5" cy="95.5" r="1.5" fill="#CAC8D4"/>
<circle cx="76.5" cy="95.5" r="1.5" fill="#CAC8D4"/>
<circle cx="100.5" cy="95.5" r="1.5" fill="#CAC8D4"/>
<circle cx="124.5" cy="95.5" r="1.5" fill="#CAC8D4"/>
<circle cx="148.5" cy="95.5" r="1.5" fill="#CAC8D4"/>
<circle cx="172.5" cy="95.5" r="1.5" fill="#CAC8D4"/>
<circle cx="196.5" cy="95.5" r="1.5" fill="#CAC8D4"/>
<circle cx="220.5" cy="95.5" r="1.5" fill="#CAC8D4"/>
<circle cx="244.5" cy="95.5" r="1.5" fill="#CAC8D4"/>
<circle cx="268.5" cy="95.5" r="1.5" fill="#CAC8D4"/>
<circle cx="292.5" cy="95.5" r="1.5" fill="#CAC8D4"/>
<circle cx="316.5" cy="95.5" r="1.5" fill="#CAC8D4"/>
<circle cx="340.5" cy="95.5" r="1.5" fill="#CAC8D4"/>
<circle cx="364.5" cy="95.5" r="1.5" fill="#CAC8D4"/>
<circle cx="388.5" cy="95.5" r="1.5" fill="#CAC8D4"/>
<circle cx="4.5" cy="119.5" r="1.5" fill="#CAC8D4"/>
<circle cx="28.5" cy="119.5" r="1.5" fill="#CAC8D4"/>
<circle cx="52.5" cy="119.5" r="1.5" fill="#CAC8D4"/>
<circle cx="76.5" cy="119.5" r="1.5" fill="#CAC8D4"/>
<circle cx="100.5" cy="119.5" r="1.5" fill="#CAC8D4"/>
<circle cx="124.5" cy="119.5" r="1.5" fill="#CAC8D4"/>
<circle cx="148.5" cy="119.5" r="1.5" fill="#CAC8D4"/>
<circle cx="172.5" cy="119.5" r="1.5" fill="#CAC8D4"/>
<circle cx="196.5" cy="119.5" r="1.5" fill="#CAC8D4"/>
<circle cx="220.5" cy="119.5" r="1.5" fill="#CAC8D4"/>
<circle cx="244.5" cy="119.5" r="1.5" fill="#CAC8D4"/>
<circle cx="268.5" cy="119.5" r="1.5" fill="#CAC8D4"/>
<circle cx="292.5" cy="119.5" r="1.5" fill="#CAC8D4"/>
<circle cx="316.5" cy="119.5" r="1.5" fill="#CAC8D4"/>
<circle cx="340.5" cy="119.5" r="1.5" fill="#CAC8D4"/>
<circle cx="364.5" cy="119.5" r="1.5" fill="#CAC8D4"/>
<circle cx="388.5" cy="119.5" r="1.5" fill="#CAC8D4"/>
<circle cx="4.5" cy="143.5" r="1.5" fill="#CAC8D4"/>
<circle cx="28.5" cy="143.5" r="1.5" fill="#CAC8D4"/>
<circle cx="52.5" cy="143.5" r="1.5" fill="#CAC8D4"/>
<circle cx="76.5" cy="143.5" r="1.5" fill="#CAC8D4"/>
<circle cx="100.5" cy="143.5" r="1.5" fill="#CAC8D4"/>
<circle cx="124.5" cy="143.5" r="1.5" fill="#CAC8D4"/>
<circle cx="148.5" cy="143.5" r="1.5" fill="#CAC8D4"/>
<circle cx="172.5" cy="143.5" r="1.5" fill="#CAC8D4"/>
<circle cx="196.5" cy="143.5" r="1.5" fill="#CAC8D4"/>
<circle cx="220.5" cy="143.5" r="1.5" fill="#CAC8D4"/>
<circle cx="244.5" cy="143.5" r="1.5" fill="#CAC8D4"/>
<circle cx="268.5" cy="143.5" r="1.5" fill="#CAC8D4"/>
<circle cx="292.5" cy="143.5" r="1.5" fill="#CAC8D4"/>
<circle cx="316.5" cy="143.5" r="1.5" fill="#CAC8D4"/>
<circle cx="340.5" cy="143.5" r="1.5" fill="#CAC8D4"/>
<circle cx="364.5" cy="143.5" r="1.5" fill="#CAC8D4"/>
<circle cx="388.5" cy="143.5" r="1.5" fill="#CAC8D4"/>
<circle cx="4.5" cy="167.5" r="1.5" fill="#CAC8D4"/>
<circle cx="28.5" cy="167.5" r="1.5" fill="#CAC8D4"/>
<circle cx="52.5" cy="167.5" r="1.5" fill="#CAC8D4"/>
<circle cx="76.5" cy="167.5" r="1.5" fill="#CAC8D4"/>
<circle cx="100.5" cy="167.5" r="1.5" fill="#CAC8D4"/>
<circle cx="124.5" cy="167.5" r="1.5" fill="#CAC8D4"/>
<circle cx="148.5" cy="167.5" r="1.5" fill="#CAC8D4"/>
<circle cx="172.5" cy="167.5" r="1.5" fill="#CAC8D4"/>
<circle cx="196.5" cy="167.5" r="1.5" fill="#CAC8D4"/>
<circle cx="220.5" cy="167.5" r="1.5" fill="#CAC8D4"/>
<circle cx="244.5" cy="167.5" r="1.5" fill="#CAC8D4"/>
<circle cx="268.5" cy="167.5" r="1.5" fill="#CAC8D4"/>
<circle cx="292.5" cy="167.5" r="1.5" fill="#CAC8D4"/>
<circle cx="316.5" cy="167.5" r="1.5" fill="#CAC8D4"/>
<circle cx="340.5" cy="167.5" r="1.5" fill="#CAC8D4"/>
<circle cx="364.5" cy="167.5" r="1.5" fill="#CAC8D4"/>
<circle cx="388.5" cy="167.5" r="1.5" fill="#CAC8D4"/>
<circle cx="4.5" cy="191.5" r="1.5" fill="#CAC8D4"/>
<circle cx="28.5" cy="191.5" r="1.5" fill="#CAC8D4"/>
<circle cx="52.5" cy="191.5" r="1.5" fill="#CAC8D4"/>
<circle cx="76.5" cy="191.5" r="1.5" fill="#CAC8D4"/>
<circle cx="100.5" cy="191.5" r="1.5" fill="#CAC8D4"/>
<circle cx="124.5" cy="191.5" r="1.5" fill="#CAC8D4"/>
<circle cx="148.5" cy="191.5" r="1.5" fill="#CAC8D4"/>
<circle cx="172.5" cy="191.5" r="1.5" fill="#CAC8D4"/>
<circle cx="196.5" cy="191.5" r="1.5" fill="#CAC8D4"/>
<circle cx="220.5" cy="191.5" r="1.5" fill="#CAC8D4"/>
<circle cx="244.5" cy="191.5" r="1.5" fill="#CAC8D4"/>
<circle cx="268.5" cy="191.5" r="1.5" fill="#CAC8D4"/>
<circle cx="292.5" cy="191.5" r="1.5" fill="#CAC8D4"/>
<circle cx="316.5" cy="191.5" r="1.5" fill="#CAC8D4"/>
<circle cx="340.5" cy="191.5" r="1.5" fill="#CAC8D4"/>
<circle cx="364.5" cy="191.5" r="1.5" fill="#CAC8D4"/>
<circle cx="388.5" cy="191.5" r="1.5" fill="#CAC8D4"/>
<circle cx="4.5" cy="215.5" r="1.5" fill="#CAC8D4"/>
<circle cx="28.5" cy="215.5" r="1.5" fill="#CAC8D4"/>
<circle cx="52.5" cy="215.5" r="1.5" fill="#CAC8D4"/>
<circle cx="76.5" cy="215.5" r="1.5" fill="#CAC8D4"/>
<circle cx="100.5" cy="215.5" r="1.5" fill="#CAC8D4"/>
<circle cx="124.5" cy="215.5" r="1.5" fill="#CAC8D4"/>
<circle cx="148.5" cy="215.5" r="1.5" fill="#CAC8D4"/>
<circle cx="172.5" cy="215.5" r="1.5" fill="#CAC8D4"/>
<circle cx="196.5" cy="215.5" r="1.5" fill="#CAC8D4"/>
<circle cx="220.5" cy="215.5" r="1.5" fill="#CAC8D4"/>
<circle cx="244.5" cy="215.5" r="1.5" fill="#CAC8D4"/>
<circle cx="268.5" cy="215.5" r="1.5" fill="#CAC8D4"/>
<circle cx="292.5" cy="215.5" r="1.5" fill="#CAC8D4"/>
<circle cx="316.5" cy="215.5" r="1.5" fill="#CAC8D4"/>
<circle cx="340.5" cy="215.5" r="1.5" fill="#CAC8D4"/>
<circle cx="364.5" cy="215.5" r="1.5" fill="#CAC8D4"/>
<circle cx="388.5" cy="215.5" r="1.5" fill="#CAC8D4"/>
<circle cx="4.5" cy="239.5" r="1.5" fill="#CAC8D4"/>
<circle cx="28.5" cy="239.5" r="1.5" fill="#CAC8D4"/>
<circle cx="52.5" cy="239.5" r="1.5" fill="#CAC8D4"/>
<circle cx="76.5" cy="239.5" r="1.5" fill="#CAC8D4"/>
<circle cx="100.5" cy="239.5" r="1.5" fill="#CAC8D4"/>
<circle cx="124.5" cy="239.5" r="1.5" fill="#CAC8D4"/>
<circle cx="148.5" cy="239.5" r="1.5" fill="#CAC8D4"/>
<circle cx="172.5" cy="239.5" r="1.5" fill="#CAC8D4"/>
<circle cx="196.5" cy="239.5" r="1.5" fill="#CAC8D4"/>
<circle cx="220.5" cy="239.5" r="1.5" fill="#CAC8D4"/>
<circle cx="244.5" cy="239.5" r="1.5" fill="#CAC8D4"/>
<circle cx="268.5" cy="239.5" r="1.5" fill="#CAC8D4"/>
<circle cx="292.5" cy="239.5" r="1.5" fill="#CAC8D4"/>
<circle cx="316.5" cy="239.5" r="1.5" fill="#CAC8D4"/>
<circle cx="340.5" cy="239.5" r="1.5" fill="#CAC8D4"/>
<circle cx="364.5" cy="239.5" r="1.5" fill="#CAC8D4"/>
<circle cx="388.5" cy="239.5" r="1.5" fill="#CAC8D4"/>
<circle cx="4.5" cy="263.5" r="1.5" fill="#CAC8D4"/>
<circle cx="28.5" cy="263.5" r="1.5" fill="#CAC8D4"/>
<circle cx="52.5" cy="263.5" r="1.5" fill="#CAC8D4"/>
<circle cx="76.5" cy="263.5" r="1.5" fill="#CAC8D4"/>
<circle cx="100.5" cy="263.5" r="1.5" fill="#CAC8D4"/>
<circle cx="124.5" cy="263.5" r="1.5" fill="#CAC8D4"/>
<circle cx="148.5" cy="263.5" r="1.5" fill="#CAC8D4"/>
<circle cx="172.5" cy="263.5" r="1.5" fill="#CAC8D4"/>
<circle cx="196.5" cy="263.5" r="1.5" fill="#CAC8D4"/>
<circle cx="220.5" cy="263.5" r="1.5" fill="#CAC8D4"/>
<circle cx="244.5" cy="263.5" r="1.5" fill="#CAC8D4"/>
<circle cx="268.5" cy="263.5" r="1.5" fill="#CAC8D4"/>
<circle cx="292.5" cy="263.5" r="1.5" fill="#CAC8D4"/>
<circle cx="316.5" cy="263.5" r="1.5" fill="#CAC8D4"/>
<circle cx="340.5" cy="263.5" r="1.5" fill="#CAC8D4"/>
<circle cx="364.5" cy="263.5" r="1.5" fill="#CAC8D4"/>
<circle cx="388.5" cy="263.5" r="1.5" fill="#CAC8D4"/>
<circle cx="4.5" cy="287.5" r="1.5" fill="#CAC8D4"/>
<circle cx="28.5" cy="287.5" r="1.5" fill="#CAC8D4"/>
<circle cx="52.5" cy="287.5" r="1.5" fill="#CAC8D4"/>
<circle cx="76.5" cy="287.5" r="1.5" fill="#CAC8D4"/>
<circle cx="100.5" cy="287.5" r="1.5" fill="#CAC8D4"/>
<circle cx="124.5" cy="287.5" r="1.5" fill="#CAC8D4"/>
<circle cx="148.5" cy="287.5" r="1.5" fill="#CAC8D4"/>
<circle cx="172.5" cy="287.5" r="1.5" fill="#CAC8D4"/>
<circle cx="196.5" cy="287.5" r="1.5" fill="#CAC8D4"/>
<circle cx="220.5" cy="287.5" r="1.5" fill="#CAC8D4"/>
<circle cx="244.5" cy="287.5" r="1.5" fill="#CAC8D4"/>
<circle cx="268.5" cy="287.5" r="1.5" fill="#CAC8D4"/>
<circle cx="292.5" cy="287.5" r="1.5" fill="#CAC8D4"/>
<circle cx="316.5" cy="287.5" r="1.5" fill="#CAC8D4"/>
<circle cx="340.5" cy="287.5" r="1.5" fill="#CAC8D4"/>
<circle cx="364.5" cy="287.5" r="1.5" fill="#CAC8D4"/>
<circle cx="388.5" cy="287.5" r="1.5" fill="#CAC8D4"/>
<circle cx="4.5" cy="311.5" r="1.5" fill="#CAC8D4"/>
<circle cx="28.5" cy="311.5" r="1.5" fill="#CAC8D4"/>
<circle cx="52.5" cy="311.5" r="1.5" fill="#CAC8D4"/>
<circle cx="76.5" cy="311.5" r="1.5" fill="#CAC8D4"/>
<circle cx="100.5" cy="311.5" r="1.5" fill="#CAC8D4"/>
<circle cx="124.5" cy="311.5" r="1.5" fill="#CAC8D4"/>
<circle cx="148.5" cy="311.5" r="1.5" fill="#CAC8D4"/>
<circle cx="172.5" cy="311.5" r="1.5" fill="#CAC8D4"/>
<circle cx="196.5" cy="311.5" r="1.5" fill="#CAC8D4"/>
<circle cx="220.5" cy="311.5" r="1.5" fill="#CAC8D4"/>
<circle cx="244.5" cy="311.5" r="1.5" fill="#CAC8D4"/>
<circle cx="268.5" cy="311.5" r="1.5" fill="#CAC8D4"/>
<circle cx="292.5" cy="311.5" r="1.5" fill="#CAC8D4"/>
<circle cx="316.5" cy="311.5" r="1.5" fill="#CAC8D4"/>
<circle cx="340.5" cy="311.5" r="1.5" fill="#CAC8D4"/>
<circle cx="364.5" cy="311.5" r="1.5" fill="#CAC8D4"/>
<circle cx="388.5" cy="311.5" r="1.5" fill="#CAC8D4"/>
<circle cx="4.5" cy="335.5" r="1.5" fill="#CAC8D4"/>
<circle cx="28.5" cy="335.5" r="1.5" fill="#CAC8D4"/>
<circle cx="52.5" cy="335.5" r="1.5" fill="#CAC8D4"/>
<circle cx="76.5" cy="335.5" r="1.5" fill="#CAC8D4"/>
<circle cx="100.5" cy="335.5" r="1.5" fill="#CAC8D4"/>
<circle cx="124.5" cy="335.5" r="1.5" fill="#CAC8D4"/>
<circle cx="148.5" cy="335.5" r="1.5" fill="#CAC8D4"/>
<circle cx="172.5" cy="335.5" r="1.5" fill="#CAC8D4"/>
<circle cx="196.5" cy="335.5" r="1.5" fill="#CAC8D4"/>
<circle cx="220.5" cy="335.5" r="1.5" fill="#CAC8D4"/>
<circle cx="244.5" cy="335.5" r="1.5" fill="#CAC8D4"/>
<circle cx="268.5" cy="335.5" r="1.5" fill="#CAC8D4"/>
<circle cx="292.5" cy="335.5" r="1.5" fill="#CAC8D4"/>
<circle cx="316.5" cy="335.5" r="1.5" fill="#CAC8D4"/>
<circle cx="340.5" cy="335.5" r="1.5" fill="#CAC8D4"/>
<circle cx="364.5" cy="335.5" r="1.5" fill="#CAC8D4"/>
<circle cx="388.5" cy="335.5" r="1.5" fill="#CAC8D4"/>
<circle cx="4.5" cy="359.5" r="1.5" fill="#CAC8D4"/>
<circle cx="28.5" cy="359.5" r="1.5" fill="#CAC8D4"/>
<circle cx="52.5" cy="359.5" r="1.5" fill="#CAC8D4"/>
<circle cx="76.5" cy="359.5" r="1.5" fill="#CAC8D4"/>
<circle cx="100.5" cy="359.5" r="1.5" fill="#CAC8D4"/>
<circle cx="124.5" cy="359.5" r="1.5" fill="#CAC8D4"/>
<circle cx="148.5" cy="359.5" r="1.5" fill="#CAC8D4"/>
<circle cx="172.5" cy="359.5" r="1.5" fill="#CAC8D4"/>
<circle cx="196.5" cy="359.5" r="1.5" fill="#CAC8D4"/>
<circle cx="220.5" cy="359.5" r="1.5" fill="#CAC8D4"/>
<circle cx="244.5" cy="359.5" r="1.5" fill="#CAC8D4"/>
<circle cx="268.5" cy="359.5" r="1.5" fill="#CAC8D4"/>
<circle cx="292.5" cy="359.5" r="1.5" fill="#CAC8D4"/>
<circle cx="316.5" cy="359.5" r="1.5" fill="#CAC8D4"/>
<circle cx="340.5" cy="359.5" r="1.5" fill="#CAC8D4"/>
<circle cx="364.5" cy="359.5" r="1.5" fill="#CAC8D4"/>
<circle cx="388.5" cy="359.5" r="1.5" fill="#CAC8D4"/>
<circle cx="4.5" cy="383.5" r="1.5" fill="#CAC8D4"/>
<circle cx="28.5" cy="383.5" r="1.5" fill="#CAC8D4"/>
<circle cx="52.5" cy="383.5" r="1.5" fill="#CAC8D4"/>
<circle cx="76.5" cy="383.5" r="1.5" fill="#CAC8D4"/>
<circle cx="100.5" cy="383.5" r="1.5" fill="#CAC8D4"/>
<circle cx="124.5" cy="383.5" r="1.5" fill="#CAC8D4"/>
<circle cx="148.5" cy="383.5" r="1.5" fill="#CAC8D4"/>
<circle cx="172.5" cy="383.5" r="1.5" fill="#CAC8D4"/>
<circle cx="196.5" cy="383.5" r="1.5" fill="#CAC8D4"/>
<circle cx="220.5" cy="383.5" r="1.5" fill="#CAC8D4"/>
<circle cx="244.5" cy="383.5" r="1.5" fill="#CAC8D4"/>
<circle cx="268.5" cy="383.5" r="1.5" fill="#CAC8D4"/>
<circle cx="292.5" cy="383.5" r="1.5" fill="#CAC8D4"/>
<circle cx="316.5" cy="383.5" r="1.5" fill="#CAC8D4"/>
<circle cx="340.5" cy="383.5" r="1.5" fill="#CAC8D4"/>
<circle cx="364.5" cy="383.5" r="1.5" fill="#CAC8D4"/>
<circle cx="388.5" cy="383.5" r="1.5" fill="#CAC8D4"/>
<circle cx="4.5" cy="407.5" r="1.5" fill="#CAC8D4"/>
<circle cx="28.5" cy="407.5" r="1.5" fill="#CAC8D4"/>
<circle cx="52.5" cy="407.5" r="1.5" fill="#CAC8D4"/>
<circle cx="76.5" cy="407.5" r="1.5" fill="#CAC8D4"/>
<circle cx="100.5" cy="407.5" r="1.5" fill="#CAC8D4"/>
<circle cx="124.5" cy="407.5" r="1.5" fill="#CAC8D4"/>
<circle cx="148.5" cy="407.5" r="1.5" fill="#CAC8D4"/>
<circle cx="172.5" cy="407.5" r="1.5" fill="#CAC8D4"/>
<circle cx="196.5" cy="407.5" r="1.5" fill="#CAC8D4"/>
<circle cx="220.5" cy="407.5" r="1.5" fill="#CAC8D4"/>
<circle cx="244.5" cy="407.5" r="1.5" fill="#CAC8D4"/>
<circle cx="268.5" cy="407.5" r="1.5" fill="#CAC8D4"/>
<circle cx="292.5" cy="407.5" r="1.5" fill="#CAC8D4"/>
<circle cx="316.5" cy="407.5" r="1.5" fill="#CAC8D4"/>
<circle cx="340.5" cy="407.5" r="1.5" fill="#CAC8D4"/>
<circle cx="364.5" cy="407.5" r="1.5" fill="#CAC8D4"/>
<circle cx="388.5" cy="407.5" r="1.5" fill="#CAC8D4"/>
<circle cx="4.5" cy="431.5" r="1.5" fill="#CAC8D4"/>
<circle cx="28.5" cy="431.5" r="1.5" fill="#CAC8D4"/>
<circle cx="52.5" cy="431.5" r="1.5" fill="#CAC8D4"/>
<circle cx="76.5" cy="431.5" r="1.5" fill="#CAC8D4"/>
<circle cx="100.5" cy="431.5" r="1.5" fill="#CAC8D4"/>
<circle cx="124.5" cy="431.5" r="1.5" fill="#CAC8D4"/>
<circle cx="148.5" cy="431.5" r="1.5" fill="#CAC8D4"/>
<circle cx="172.5" cy="431.5" r="1.5" fill="#CAC8D4"/>
<circle cx="196.5" cy="431.5" r="1.5" fill="#CAC8D4"/>
<circle cx="220.5" cy="431.5" r="1.5" fill="#CAC8D4"/>
<circle cx="244.5" cy="431.5" r="1.5" fill="#CAC8D4"/>
<circle cx="268.5" cy="431.5" r="1.5" fill="#CAC8D4"/>
<circle cx="292.5" cy="431.5" r="1.5" fill="#CAC8D4"/>
<circle cx="316.5" cy="431.5" r="1.5" fill="#CAC8D4"/>
<circle cx="340.5" cy="431.5" r="1.5" fill="#CAC8D4"/>
<circle cx="364.5" cy="431.5" r="1.5" fill="#CAC8D4"/>
<circle cx="388.5" cy="431.5" r="1.5" fill="#CAC8D4"/>
<circle cx="4.5" cy="455.5" r="1.5" fill="#CAC8D4"/>
<circle cx="28.5" cy="455.5" r="1.5" fill="#CAC8D4"/>
<circle cx="52.5" cy="455.5" r="1.5" fill="#CAC8D4"/>
<circle cx="76.5" cy="455.5" r="1.5" fill="#CAC8D4"/>
<circle cx="100.5" cy="455.5" r="1.5" fill="#CAC8D4"/>
<circle cx="124.5" cy="455.5" r="1.5" fill="#CAC8D4"/>
<circle cx="148.5" cy="455.5" r="1.5" fill="#CAC8D4"/>
<circle cx="172.5" cy="455.5" r="1.5" fill="#CAC8D4"/>
<circle cx="196.5" cy="455.5" r="1.5" fill="#CAC8D4"/>
<circle cx="220.5" cy="455.5" r="1.5" fill="#CAC8D4"/>
<circle cx="244.5" cy="455.5" r="1.5" fill="#CAC8D4"/>
<circle cx="268.5" cy="455.5" r="1.5" fill="#CAC8D4"/>
<circle cx="292.5" cy="455.5" r="1.5" fill="#CAC8D4"/>
<circle cx="316.5" cy="455.5" r="1.5" fill="#CAC8D4"/>
<circle cx="340.5" cy="455.5" r="1.5" fill="#CAC8D4"/>
<circle cx="364.5" cy="455.5" r="1.5" fill="#CAC8D4"/>
<circle cx="388.5" cy="455.5" r="1.5" fill="#CAC8D4"/>
<circle cx="4.5" cy="479.5" r="1.5" fill="#CAC8D4"/>
<circle cx="28.5" cy="479.5" r="1.5" fill="#CAC8D4"/>
<circle cx="52.5" cy="479.5" r="1.5" fill="#CAC8D4"/>
<circle cx="76.5" cy="479.5" r="1.5" fill="#CAC8D4"/>
<circle cx="100.5" cy="479.5" r="1.5" fill="#CAC8D4"/>
<circle cx="124.5" cy="479.5" r="1.5" fill="#CAC8D4"/>
<circle cx="148.5" cy="479.5" r="1.5" fill="#CAC8D4"/>
<circle cx="172.5" cy="479.5" r="1.5" fill="#CAC8D4"/>
<circle cx="196.5" cy="479.5" r="1.5" fill="#CAC8D4"/>
<circle cx="220.5" cy="479.5" r="1.5" fill="#CAC8D4"/>
<circle cx="244.5" cy="479.5" r="1.5" fill="#CAC8D4"/>
<circle cx="268.5" cy="479.5" r="1.5" fill="#CAC8D4"/>
<circle cx="292.5" cy="479.5" r="1.5" fill="#CAC8D4"/>
<circle cx="316.5" cy="479.5" r="1.5" fill="#CAC8D4"/>
<circle cx="340.5" cy="479.5" r="1.5" fill="#CAC8D4"/>
<circle cx="364.5" cy="479.5" r="1.5" fill="#CAC8D4"/>
<circle cx="388.5" cy="479.5" r="1.5" fill="#CAC8D4"/>
<circle cx="4.5" cy="503.5" r="1.5" fill="#CAC8D4"/>
<circle cx="28.5" cy="503.5" r="1.5" fill="#CAC8D4"/>
<circle cx="52.5" cy="503.5" r="1.5" fill="#CAC8D4"/>
<circle cx="76.5" cy="503.5" r="1.5" fill="#CAC8D4"/>
<circle cx="100.5" cy="503.5" r="1.5" fill="#CAC8D4"/>
<circle cx="124.5" cy="503.5" r="1.5" fill="#CAC8D4"/>
<circle cx="148.5" cy="503.5" r="1.5" fill="#CAC8D4"/>
<circle cx="172.5" cy="503.5" r="1.5" fill="#CAC8D4"/>
<circle cx="196.5" cy="503.5" r="1.5" fill="#CAC8D4"/>
<circle cx="220.5" cy="503.5" r="1.5" fill="#CAC8D4"/>
<circle cx="244.5" cy="503.5" r="1.5" fill="#CAC8D4"/>
<circle cx="268.5" cy="503.5" r="1.5" fill="#CAC8D4"/>
<circle cx="292.5" cy="503.5" r="1.5" fill="#CAC8D4"/>
<circle cx="316.5" cy="503.5" r="1.5" fill="#CAC8D4"/>
<circle cx="340.5" cy="503.5" r="1.5" fill="#CAC8D4"/>
<circle cx="364.5" cy="503.5" r="1.5" fill="#CAC8D4"/>
<circle cx="388.5" cy="503.5" r="1.5" fill="#CAC8D4"/>
<circle cx="4.5" cy="527.5" r="1.5" fill="#CAC8D4"/>
<circle cx="28.5" cy="527.5" r="1.5" fill="#CAC8D4"/>
<circle cx="52.5" cy="527.5" r="1.5" fill="#CAC8D4"/>
<circle cx="76.5" cy="527.5" r="1.5" fill="#CAC8D4"/>
<circle cx="100.5" cy="527.5" r="1.5" fill="#CAC8D4"/>
<circle cx="124.5" cy="527.5" r="1.5" fill="#CAC8D4"/>
<circle cx="148.5" cy="527.5" r="1.5" fill="#CAC8D4"/>
<circle cx="172.5" cy="527.5" r="1.5" fill="#CAC8D4"/>
<circle cx="196.5" cy="527.5" r="1.5" fill="#CAC8D4"/>
<circle cx="220.5" cy="527.5" r="1.5" fill="#CAC8D4"/>
<circle cx="244.5" cy="527.5" r="1.5" fill="#CAC8D4"/>
<circle cx="268.5" cy="527.5" r="1.5" fill="#CAC8D4"/>
<circle cx="292.5" cy="527.5" r="1.5" fill="#CAC8D4"/>
<circle cx="316.5" cy="527.5" r="1.5" fill="#CAC8D4"/>
<circle cx="340.5" cy="527.5" r="1.5" fill="#CAC8D4"/>
<circle cx="364.5" cy="527.5" r="1.5" fill="#CAC8D4"/>
<circle cx="388.5" cy="527.5" r="1.5" fill="#CAC8D4"/>
<circle cx="4.5" cy="551.5" r="1.5" fill="#CAC8D4"/>
<circle cx="28.5" cy="551.5" r="1.5" fill="#CAC8D4"/>
<circle cx="52.5" cy="551.5" r="1.5" fill="#CAC8D4"/>
<circle cx="76.5" cy="551.5" r="1.5" fill="#CAC8D4"/>
<circle cx="100.5" cy="551.5" r="1.5" fill="#CAC8D4"/>
<circle cx="124.5" cy="551.5" r="1.5" fill="#CAC8D4"/>
<circle cx="148.5" cy="551.5" r="1.5" fill="#CAC8D4"/>
<circle cx="172.5" cy="551.5" r="1.5" fill="#CAC8D4"/>
<circle cx="196.5" cy="551.5" r="1.5" fill="#CAC8D4"/>
<circle cx="220.5" cy="551.5" r="1.5" fill="#CAC8D4"/>
<circle cx="244.5" cy="551.5" r="1.5" fill="#CAC8D4"/>
<circle cx="268.5" cy="551.5" r="1.5" fill="#CAC8D4"/>
<circle cx="292.5" cy="551.5" r="1.5" fill="#CAC8D4"/>
<circle cx="316.5" cy="551.5" r="1.5" fill="#CAC8D4"/>
<circle cx="340.5" cy="551.5" r="1.5" fill="#CAC8D4"/>
<circle cx="364.5" cy="551.5" r="1.5" fill="#CAC8D4"/>
<circle cx="388.5" cy="551.5" r="1.5" fill="#CAC8D4"/>
<circle cx="4.5" cy="575.5" r="1.5" fill="#CAC8D4"/>
<circle cx="28.5" cy="575.5" r="1.5" fill="#CAC8D4"/>
<circle cx="52.5" cy="575.5" r="1.5" fill="#CAC8D4"/>
<circle cx="76.5" cy="575.5" r="1.5" fill="#CAC8D4"/>
<circle cx="100.5" cy="575.5" r="1.5" fill="#CAC8D4"/>
<circle cx="124.5" cy="575.5" r="1.5" fill="#CAC8D4"/>
<circle cx="148.5" cy="575.5" r="1.5" fill="#CAC8D4"/>
<circle cx="172.5" cy="575.5" r="1.5" fill="#CAC8D4"/>
<circle cx="196.5" cy="575.5" r="1.5" fill="#CAC8D4"/>
<circle cx="220.5" cy="575.5" r="1.5" fill="#CAC8D4"/>
<circle cx="244.5" cy="575.5" r="1.5" fill="#CAC8D4"/>
<circle cx="268.5" cy="575.5" r="1.5" fill="#CAC8D4"/>
<circle cx="292.5" cy="575.5" r="1.5" fill="#CAC8D4"/>
<circle cx="316.5" cy="575.5" r="1.5" fill="#CAC8D4"/>
<circle cx="340.5" cy="575.5" r="1.5" fill="#CAC8D4"/>
<circle cx="364.5" cy="575.5" r="1.5" fill="#CAC8D4"/>
<circle cx="388.5" cy="575.5" r="1.5" fill="#CAC8D4"/>
<circle cx="4.5" cy="599.5" r="1.5" fill="#CAC8D4"/>
<circle cx="28.5" cy="599.5" r="1.5" fill="#CAC8D4"/>
<circle cx="52.5" cy="599.5" r="1.5" fill="#CAC8D4"/>
<circle cx="76.5" cy="599.5" r="1.5" fill="#CAC8D4"/>
<circle cx="100.5" cy="599.5" r="1.5" fill="#CAC8D4"/>
<circle cx="124.5" cy="599.5" r="1.5" fill="#CAC8D4"/>
<circle cx="148.5" cy="599.5" r="1.5" fill="#CAC8D4"/>
<circle cx="172.5" cy="599.5" r="1.5" fill="#CAC8D4"/>
<circle cx="196.5" cy="599.5" r="1.5" fill="#CAC8D4"/>
<circle cx="220.5" cy="599.5" r="1.5" fill="#CAC8D4"/>
<circle cx="244.5" cy="599.5" r="1.5" fill="#CAC8D4"/>
<circle cx="268.5" cy="599.5" r="1.5" fill="#CAC8D4"/>
<circle cx="292.5" cy="599.5" r="1.5" fill="#CAC8D4"/>
<circle cx="316.5" cy="599.5" r="1.5" fill="#CAC8D4"/>
<circle cx="340.5" cy="599.5" r="1.5" fill="#CAC8D4"/>
<circle cx="364.5" cy="599.5" r="1.5" fill="#CAC8D4"/>
<circle cx="388.5" cy="599.5" r="1.5" fill="#CAC8D4"/>
<circle cx="4.5" cy="623.5" r="1.5" fill="#CAC8D4"/>
<circle cx="28.5" cy="623.5" r="1.5" fill="#CAC8D4"/>
<circle cx="52.5" cy="623.5" r="1.5" fill="#CAC8D4"/>
<circle cx="76.5" cy="623.5" r="1.5" fill="#CAC8D4"/>
<circle cx="100.5" cy="623.5" r="1.5" fill="#CAC8D4"/>
<circle cx="124.5" cy="623.5" r="1.5" fill="#CAC8D4"/>
<circle cx="148.5" cy="623.5" r="1.5" fill="#CAC8D4"/>
<circle cx="172.5" cy="623.5" r="1.5" fill="#CAC8D4"/>
<circle cx="196.5" cy="623.5" r="1.5" fill="#CAC8D4"/>
<circle cx="220.5" cy="623.5" r="1.5" fill="#CAC8D4"/>
<circle cx="244.5" cy="623.5" r="1.5" fill="#CAC8D4"/>
<circle cx="268.5" cy="623.5" r="1.5" fill="#CAC8D4"/>
<circle cx="292.5" cy="623.5" r="1.5" fill="#CAC8D4"/>
<circle cx="316.5" cy="623.5" r="1.5" fill="#CAC8D4"/>
<circle cx="340.5" cy="623.5" r="1.5" fill="#CAC8D4"/>
<circle cx="364.5" cy="623.5" r="1.5" fill="#CAC8D4"/>
<circle cx="388.5" cy="623.5" r="1.5" fill="#CAC8D4"/>
<circle cx="4.5" cy="647.5" r="1.5" fill="#CAC8D4"/>
<circle cx="28.5" cy="647.5" r="1.5" fill="#CAC8D4"/>
<circle cx="52.5" cy="647.5" r="1.5" fill="#CAC8D4"/>
<circle cx="76.5" cy="647.5" r="1.5" fill="#CAC8D4"/>
<circle cx="100.5" cy="647.5" r="1.5" fill="#CAC8D4"/>
<circle cx="124.5" cy="647.5" r="1.5" fill="#CAC8D4"/>
<circle cx="148.5" cy="647.5" r="1.5" fill="#CAC8D4"/>
<circle cx="172.5" cy="647.5" r="1.5" fill="#CAC8D4"/>
<circle cx="196.5" cy="647.5" r="1.5" fill="#CAC8D4"/>
<circle cx="220.5" cy="647.5" r="1.5" fill="#CAC8D4"/>
<circle cx="244.5" cy="647.5" r="1.5" fill="#CAC8D4"/>
<circle cx="268.5" cy="647.5" r="1.5" fill="#CAC8D4"/>
<circle cx="292.5" cy="647.5" r="1.5" fill="#CAC8D4"/>
<circle cx="316.5" cy="647.5" r="1.5" fill="#CAC8D4"/>
<circle cx="340.5" cy="647.5" r="1.5" fill="#CAC8D4"/>
<circle cx="364.5" cy="647.5" r="1.5" fill="#CAC8D4"/>
<circle cx="388.5" cy="647.5" r="1.5" fill="#CAC8D4"/>
<circle cx="4.5" cy="671.5" r="1.5" fill="#CAC8D4"/>
<circle cx="28.5" cy="671.5" r="1.5" fill="#CAC8D4"/>
<circle cx="52.5" cy="671.5" r="1.5" fill="#CAC8D4"/>
<circle cx="76.5" cy="671.5" r="1.5" fill="#CAC8D4"/>
<circle cx="100.5" cy="671.5" r="1.5" fill="#CAC8D4"/>
<circle cx="124.5" cy="671.5" r="1.5" fill="#CAC8D4"/>
<circle cx="148.5" cy="671.5" r="1.5" fill="#CAC8D4"/>
<circle cx="172.5" cy="671.5" r="1.5" fill="#CAC8D4"/>
<circle cx="196.5" cy="671.5" r="1.5" fill="#CAC8D4"/>
<circle cx="220.5" cy="671.5" r="1.5" fill="#CAC8D4"/>
<circle cx="244.5" cy="671.5" r="1.5" fill="#CAC8D4"/>
<circle cx="268.5" cy="671.5" r="1.5" fill="#CAC8D4"/>
<circle cx="292.5" cy="671.5" r="1.5" fill="#CAC8D4"/>
<circle cx="316.5" cy="671.5" r="1.5" fill="#CAC8D4"/>
<circle cx="340.5" cy="671.5" r="1.5" fill="#CAC8D4"/>
<circle cx="364.5" cy="671.5" r="1.5" fill="#CAC8D4"/>
<circle cx="388.5" cy="671.5" r="1.5" fill="#CAC8D4"/>
<circle cx="4.5" cy="695.5" r="1.5" fill="#CAC8D4"/>
<circle cx="28.5" cy="695.5" r="1.5" fill="#CAC8D4"/>
<circle cx="52.5" cy="695.5" r="1.5" fill="#CAC8D4"/>
<circle cx="76.5" cy="695.5" r="1.5" fill="#CAC8D4"/>
<circle cx="100.5" cy="695.5" r="1.5" fill="#CAC8D4"/>
<circle cx="124.5" cy="695.5" r="1.5" fill="#CAC8D4"/>
<circle cx="148.5" cy="695.5" r="1.5" fill="#CAC8D4"/>
<circle cx="172.5" cy="695.5" r="1.5" fill="#CAC8D4"/>
<circle cx="196.5" cy="695.5" r="1.5" fill="#CAC8D4"/>
<circle cx="220.5" cy="695.5" r="1.5" fill="#CAC8D4"/>
<circle cx="244.5" cy="695.5" r="1.5" fill="#CAC8D4"/>
<circle cx="268.5" cy="695.5" r="1.5" fill="#CAC8D4"/>
<circle cx="292.5" cy="695.5" r="1.5" fill="#CAC8D4"/>
<circle cx="316.5" cy="695.5" r="1.5" fill="#CAC8D4"/>
<circle cx="340.5" cy="695.5" r="1.5" fill="#CAC8D4"/>
<circle cx="364.5" cy="695.5" r="1.5" fill="#CAC8D4"/>
<circle cx="388.5" cy="695.5" r="1.5" fill="#CAC8D4"/>
<circle cx="4.5" cy="719.5" r="1.5" fill="#CAC8D4"/>
<circle cx="28.5" cy="719.5" r="1.5" fill="#CAC8D4"/>
<circle cx="52.5" cy="719.5" r="1.5" fill="#CAC8D4"/>
<circle cx="76.5" cy="719.5" r="1.5" fill="#CAC8D4"/>
<circle cx="100.5" cy="719.5" r="1.5" fill="#CAC8D4"/>
<circle cx="124.5" cy="719.5" r="1.5" fill="#CAC8D4"/>
<circle cx="148.5" cy="719.5" r="1.5" fill="#CAC8D4"/>
<circle cx="172.5" cy="719.5" r="1.5" fill="#CAC8D4"/>
<circle cx="196.5" cy="719.5" r="1.5" fill="#CAC8D4"/>
<circle cx="220.5" cy="719.5" r="1.5" fill="#CAC8D4"/>
<circle cx="244.5" cy="719.5" r="1.5" fill="#CAC8D4"/>
<circle cx="268.5" cy="719.5" r="1.5" fill="#CAC8D4"/>
<circle cx="292.5" cy="719.5" r="1.5" fill="#CAC8D4"/>
<circle cx="316.5" cy="719.5" r="1.5" fill="#CAC8D4"/>
<circle cx="340.5" cy="719.5" r="1.5" fill="#CAC8D4"/>
<circle cx="364.5" cy="719.5" r="1.5" fill="#CAC8D4"/>
<circle cx="388.5" cy="719.5" r="1.5" fill="#CAC8D4"/>
<circle cx="4.5" cy="743.5" r="1.5" fill="#CAC8D4"/>
<circle cx="28.5" cy="743.5" r="1.5" fill="#CAC8D4"/>
<circle cx="52.5" cy="743.5" r="1.5" fill="#CAC8D4"/>
<circle cx="76.5" cy="743.5" r="1.5" fill="#CAC8D4"/>
<circle cx="100.5" cy="743.5" r="1.5" fill="#CAC8D4"/>
<circle cx="124.5" cy="743.5" r="1.5" fill="#CAC8D4"/>
<circle cx="148.5" cy="743.5" r="1.5" fill="#CAC8D4"/>
<circle cx="172.5" cy="743.5" r="1.5" fill="#CAC8D4"/>
<circle cx="196.5" cy="743.5" r="1.5" fill="#CAC8D4"/>
<circle cx="220.5" cy="743.5" r="1.5" fill="#CAC8D4"/>
<circle cx="244.5" cy="743.5" r="1.5" fill="#CAC8D4"/>
<circle cx="268.5" cy="743.5" r="1.5" fill="#CAC8D4"/>
<circle cx="292.5" cy="743.5" r="1.5" fill="#CAC8D4"/>
<circle cx="316.5" cy="743.5" r="1.5" fill="#CAC8D4"/>
<circle cx="340.5" cy="743.5" r="1.5" fill="#CAC8D4"/>
<circle cx="364.5" cy="743.5" r="1.5" fill="#CAC8D4"/>
<circle cx="388.5" cy="743.5" r="1.5" fill="#CAC8D4"/>
<circle cx="4.5" cy="767.5" r="1.5" fill="#CAC8D4"/>
<circle cx="28.5" cy="767.5" r="1.5" fill="#CAC8D4"/>
<circle cx="52.5" cy="767.5" r="1.5" fill="#CAC8D4"/>
<circle cx="76.5" cy="767.5" r="1.5" fill="#CAC8D4"/>
<circle cx="100.5" cy="767.5" r="1.5" fill="#CAC8D4"/>
<circle cx="124.5" cy="767.5" r="1.5" fill="#CAC8D4"/>
<circle cx="148.5" cy="767.5" r="1.5" fill="#CAC8D4"/>
<circle cx="172.5" cy="767.5" r="1.5" fill="#CAC8D4"/>
<circle cx="196.5" cy="767.5" r="1.5" fill="#CAC8D4"/>
<circle cx="220.5" cy="767.5" r="1.5" fill="#CAC8D4"/>
<circle cx="244.5" cy="767.5" r="1.5" fill="#CAC8D4"/>
<circle cx="268.5" cy="767.5" r="1.5" fill="#CAC8D4"/>
<circle cx="292.5" cy="767.5" r="1.5" fill="#CAC8D4"/>
<circle cx="316.5" cy="767.5" r="1.5" fill="#CAC8D4"/>
<circle cx="340.5" cy="767.5" r="1.5" fill="#CAC8D4"/>
<circle cx="364.5" cy="767.5" r="1.5" fill="#CAC8D4"/>
<circle cx="388.5" cy="767.5" r="1.5" fill="#CAC8D4"/>
<circle cx="4.5" cy="791.5" r="1.5" fill="#CAC8D4"/>
<circle cx="28.5" cy="791.5" r="1.5" fill="#CAC8D4"/>
<circle cx="52.5" cy="791.5" r="1.5" fill="#CAC8D4"/>
<circle cx="76.5" cy="791.5" r="1.5" fill="#CAC8D4"/>
<circle cx="100.5" cy="791.5" r="1.5" fill="#CAC8D4"/>
<circle cx="124.5" cy="791.5" r="1.5" fill="#CAC8D4"/>
<circle cx="148.5" cy="791.5" r="1.5" fill="#CAC8D4"/>
<circle cx="172.5" cy="791.5" r="1.5" fill="#CAC8D4"/>
<circle cx="196.5" cy="791.5" r="1.5" fill="#CAC8D4"/>
<circle cx="220.5" cy="791.5" r="1.5" fill="#CAC8D4"/>
<circle cx="244.5" cy="791.5" r="1.5" fill="#CAC8D4"/>
<circle cx="268.5" cy="791.5" r="1.5" fill="#CAC8D4"/>
<circle cx="292.5" cy="791.5" r="1.5" fill="#CAC8D4"/>
<circle cx="316.5" cy="791.5" r="1.5" fill="#CAC8D4"/>
<circle cx="340.5" cy="791.5" r="1.5" fill="#CAC8D4"/>
<circle cx="364.5" cy="791.5" r="1.5" fill="#CAC8D4"/>
<circle cx="388.5" cy="791.5" r="1.5" fill="#CAC8D4"/>
</g>
</g>
<defs>
<radialGradient id="paint0_radial_3_22920" cx="0" cy="0" r="1" gradientUnits="userSpaceOnUse" gradientTransform="translate(197 -7.69378e-05) rotate(90) scale(645.401 574.573)">
<stop stop-color="white"/>
<stop offset="0.991144" stop-color="white" stop-opacity="0"/>
</radialGradient>
</defs>
</svg>
