<svg width="32" height="32" viewBox="0 0 32 32" fill="none" xmlns="http://www.w3.org/2000/svg">
<path opacity="0.4" fill-rule="evenodd" clip-rule="evenodd" d="M10.0848 28.1489C6.00289 26.1369 3.2257 22.1519 2.72658 17.5903C2.1968 10.7529 5.64536 6.81011 7.43586 5.6934C12.3153 1.65819 19.3333 1.65819 24.2126 5.6934C29.2166 9.7239 29.6333 15.3041 29.2162 17.5903C28.7171 22.1519 25.9399 26.1369 21.8581 28.1489C17.0313 30.2947 11.9981 29.043 10.0848 28.1489ZM16.0026 21.3337C18.9481 21.3337 21.3359 18.9458 21.3359 16.0003C21.3359 13.0548 18.9481 10.667 16.0026 10.667C13.0571 10.667 10.6693 13.0548 10.6693 16.0003C10.6693 18.9458 13.0571 21.3337 16.0026 21.3337Z" fill="white"/>
<path d="M16.0052 21.3337C18.9507 21.3337 21.3385 18.9458 21.3385 16.0003C21.3385 13.0548 18.9507 10.667 16.0052 10.667C13.0597 10.667 10.6719 13.0548 10.6719 16.0003C10.6719 18.9458 13.0597 21.3337 16.0052 21.3337Z" stroke="white" stroke-width="2" stroke-linecap="round" stroke-linejoin="round"/>
<path d="M29.3307 12H29.3174M2.67733 12H2.66406M16.0041 29.3333H15.9907" stroke="white" stroke-width="2.66667" stroke-linecap="round" stroke-linejoin="round"/>
<path d="M10.0715 28.0003C5.96225 26.0002 3.1665 22.0383 2.66406 17.5034M21.9233 28.0003C26.0326 26.0002 28.8283 22.0383 29.3307 17.5034M7.4048 5.67576C12.3168 1.66407 19.3817 1.66407 24.2937 5.67576" stroke="white" stroke-width="2" stroke-linecap="round" stroke-linejoin="round"/>
</svg>
