<svg width="32" height="32" viewBox="0 0 32 32" fill="none" xmlns="http://www.w3.org/2000/svg">
<path opacity="0.4" fill-rule="evenodd" clip-rule="evenodd" d="M15.9974 29.3337C8.6336 29.3337 2.66406 23.3641 2.66406 16.0003C2.66406 13.4902 3.3577 11.142 4.56377 9.13713C4.6295 9.02785 4.71117 8.93099 4.80652 8.8463C4.85501 8.80323 4.90465 8.75923 4.95536 8.71438C5.4181 9.10099 6.01392 9.33366 6.66406 9.33366C8.13682 9.33366 9.33073 8.13975 9.33073 6.66699C9.33073 6.17877 9.19952 5.72118 8.97045 5.32758C10.3058 4.26551 11.4998 3.40566 11.9974 3.27739C13.2601 2.88079 14.6038 2.66699 15.9974 2.66699C23.3611 2.66699 29.3307 8.63653 29.3307 16.0003C29.3307 18.6673 28.5477 21.1514 27.199 23.2353C27.1723 23.2763 27.1485 23.3185 27.1254 23.3613C26.6517 22.9299 26.0219 22.667 25.3307 22.667C23.8579 22.667 22.6641 23.8609 22.6641 25.3337C22.6641 25.8969 22.8387 26.4193 23.1367 26.8498C22.0315 27.5717 20.9187 28.2213 20.1079 28.6633C20.0334 28.7039 19.9566 28.7363 19.8754 28.761C18.6482 29.1334 17.3462 29.3337 15.9974 29.3337ZM22.6641 16.0003C22.6641 19.6822 19.6793 22.667 15.9974 22.667C14.7299 22.5086 13.6742 22.1109 12.8058 21.5893C12.3199 22.2433 11.5414 22.667 10.6641 22.667C9.1913 22.667 7.9974 21.4731 7.9974 20.0003C7.9974 18.9306 8.62732 18.0079 9.53648 17.5831C9.50849 17.4959 9.4844 17.4126 9.46409 17.3337C9.37664 16.9029 9.33073 16.457 9.33073 16.0003C9.33073 12.3184 12.3155 9.33366 15.9974 9.33366C19.6793 9.33366 22.6641 12.3184 22.6641 16.0003Z" fill="white"/>
<path d="M4.66406 8.9731C3.39624 11.0135 2.66406 13.4214 2.66406 16.0003C2.66406 23.3641 8.6336 29.3337 15.9974 29.3337C17.391 29.3337 18.7347 29.1198 19.9974 28.7233M27.1347 23.3337C28.5227 21.2298 29.3307 18.7094 29.3307 16.0003C29.3307 8.63653 23.3611 2.66699 15.9974 2.66699C14.6038 2.66699 13.2601 2.88079 11.9974 3.27739" stroke="white" stroke-width="2" stroke-linecap="round" stroke-linejoin="round"/>
<path d="M6.66667 9.33333C8.13943 9.33333 9.33333 8.13943 9.33333 6.66667C9.33333 5.19391 8.13943 4 6.66667 4C5.19391 4 4 5.19391 4 6.66667C4 8.13943 5.19391 9.33333 6.66667 9.33333Z" stroke="white" stroke-width="2" stroke-linecap="round" stroke-linejoin="round"/>
<path d="M25.3307 28.0003C26.8035 28.0003 27.9974 26.8064 27.9974 25.3337C27.9974 23.8609 26.8035 22.667 25.3307 22.667C23.858 22.667 22.6641 23.8609 22.6641 25.3337C22.6641 26.8064 23.858 28.0003 25.3307 28.0003Z" stroke="white" stroke-width="2" stroke-linecap="round" stroke-linejoin="round"/>
<path d="M10.6667 22.6663C12.1394 22.6663 13.3333 21.4724 13.3333 19.9997C13.3333 18.5269 12.1394 17.333 10.6667 17.333C9.19391 17.333 8 18.5269 8 19.9997C8 21.4724 9.19391 22.6663 10.6667 22.6663Z" stroke="white" stroke-width="2" stroke-linecap="round" stroke-linejoin="round"/>
<path d="M16.0026 22.6663C19.6845 22.6663 22.6693 19.6815 22.6693 15.9997C22.6693 12.3178 19.6845 9.33301 16.0026 9.33301C12.3207 9.33301 9.33594 12.3178 9.33594 15.9997C9.33594 16.4563 9.38184 16.9022 9.4693 17.333" stroke="white" stroke-width="2" stroke-linecap="round" stroke-linejoin="round"/>
<path d="M16.012 16H16" stroke="white" stroke-width="2.66667" stroke-linecap="round" stroke-linejoin="round"/>
</svg>
