<svg width="32" height="32" viewBox="0 0 32 32" fill="none" xmlns="http://www.w3.org/2000/svg">
<g opacity="0.4">
<path d="M13.3359 5.33301H8.0026C7.46927 7.46634 6.0026 7.99967 5.33594 7.99967V13.333C6.0026 13.333 7.46927 13.8663 8.0026 15.9997H13.3359C13.3359 15.1107 13.8693 13.333 16.0026 13.333V7.99967C13.8693 7.99967 13.3359 6.2219 13.3359 5.33301Z" fill="white"/>
<path d="M24 16H18.6667C18.1333 18.6667 16.6667 18.8889 16 18.6667V24C16.8889 24 18.6667 24.5333 18.6667 26.6667H24C24 25.7777 24.5333 24 26.6667 24V18.6667C24.5333 18.6667 24 16.8889 24 16Z" fill="white"/>
</g>
<path d="M8.0026 5.33301H13.3359M5.33594 13.333V7.99967M16.0026 7.99967V13.333M8.0026 15.9997H13.3359M18.6693 15.9997H24.0026M26.6693 18.6663V23.9997M16.0026 18.6663V23.9997M18.6693 26.6663H24.0026" stroke="white" stroke-width="2" stroke-linecap="round" stroke-linejoin="round"/>
<path d="M5.33073 8.00033C6.80349 8.00033 7.9974 6.80642 7.9974 5.33366C7.9974 3.8609 6.80349 2.66699 5.33073 2.66699C3.85797 2.66699 2.66406 3.8609 2.66406 5.33366C2.66406 6.80642 3.85797 8.00033 5.33073 8.00033Z" stroke="white" stroke-width="2" stroke-linecap="round" stroke-linejoin="round"/>
<path d="M5.33073 18.6663C6.80349 18.6663 7.9974 17.4724 7.9974 15.9997C7.9974 14.5269 6.80349 13.333 5.33073 13.333C3.85797 13.333 2.66406 14.5269 2.66406 15.9997C2.66406 17.4724 3.85797 18.6663 5.33073 18.6663Z" stroke="white" stroke-width="2" stroke-linecap="round" stroke-linejoin="round"/>
<path d="M16.0026 8.00033C17.4754 8.00033 18.6693 6.80642 18.6693 5.33366C18.6693 3.8609 17.4754 2.66699 16.0026 2.66699C14.5298 2.66699 13.3359 3.8609 13.3359 5.33366C13.3359 6.80642 14.5298 8.00033 16.0026 8.00033Z" stroke="white" stroke-width="2" stroke-linecap="round" stroke-linejoin="round"/>
<path d="M16.0026 18.6663C17.4754 18.6663 18.6693 17.4724 18.6693 15.9997C18.6693 14.5269 17.4754 13.333 16.0026 13.333C14.5298 13.333 13.3359 14.5269 13.3359 15.9997C13.3359 17.4724 14.5298 18.6663 16.0026 18.6663Z" stroke="white" stroke-width="2" stroke-linecap="round" stroke-linejoin="round"/>
<path d="M26.6667 18.6663C28.1394 18.6663 29.3333 17.4724 29.3333 15.9997C29.3333 14.5269 28.1394 13.333 26.6667 13.333C25.1939 13.333 24 14.5269 24 15.9997C24 17.4724 25.1939 18.6663 26.6667 18.6663Z" stroke="white" stroke-width="2" stroke-linecap="round" stroke-linejoin="round"/>
<path d="M16.0026 29.3333C17.4754 29.3333 18.6693 28.1394 18.6693 26.6667C18.6693 25.1939 17.4754 24 16.0026 24C14.5298 24 13.3359 25.1939 13.3359 26.6667C13.3359 28.1394 14.5298 29.3333 16.0026 29.3333Z" stroke="white" stroke-width="2" stroke-linecap="round" stroke-linejoin="round"/>
<path d="M26.6667 29.3333C28.1394 29.3333 29.3333 28.1394 29.3333 26.6667C29.3333 25.1939 28.1394 24 26.6667 24C25.1939 24 24 25.1939 24 26.6667C24 28.1394 25.1939 29.3333 26.6667 29.3333Z" stroke="white" stroke-width="2" stroke-linecap="round" stroke-linejoin="round"/>
</svg>
