<svg width="32" height="32" viewBox="0 0 32 32" fill="none" xmlns="http://www.w3.org/2000/svg">
<path opacity="0.4" d="M18.0753 8.33301C19.8969 8.33298 21.3687 8.33296 22.5268 8.49404C23.7333 8.66184 24.7464 9.0213 25.5475 9.84996C26.3439 10.6739 26.6852 11.7079 26.8452 12.9396C27 14.1309 27 15.6474 27 17.5375V17.6802C27 19.5703 27 21.0869 26.8452 22.2782C26.6852 23.5098 26.3439 24.5438 25.5475 25.3678C24.9017 26.0358 23.8179 26.4359 22.9328 26.6335C22.9328 26.6335 23.2639 28.1051 23.2756 28.4647C23.2867 28.8082 23.2479 29.2751 22.9548 29.6791C22.6293 30.1279 22.1499 30.2898 21.73 30.3246C21.3344 30.3575 20.9001 30.2893 20.4641 30.1839C19.6928 29.9975 18.9645 29.5331 18.3707 29.065C17.7607 28.5842 17.2081 28.0311 16.7857 27.5711C16.2485 27.0189 15.6161 26.8834 15.3671 26.8847H13.9247C12.1031 26.8847 10.6314 26.8847 9.47316 26.7237C8.26669 26.5559 7.25361 26.1965 6.45259 25.3678C5.65613 24.5438 5.31487 23.5098 5.15479 22.2782C4.99996 21.0869 4.99997 19.5703 5 17.6802V17.5375C4.99997 15.6474 4.99996 14.1309 5.15479 12.9396C5.31487 11.7079 5.65613 10.6739 6.45259 9.84996C7.25361 9.0213 8.26669 8.66184 9.47316 8.49404C10.6314 8.33296 12.1031 8.33298 13.9247 8.33301H18.0753Z" fill="white"/>
<path fill-rule="evenodd" clip-rule="evenodd" d="M11.9796 19.2709C12.3823 18.8929 13.0151 18.9129 13.3931 19.3156C13.9443 19.9027 14.8801 20.3333 15.9974 20.3333C17.1147 20.3333 18.0505 19.9027 18.6017 19.3156C18.9797 18.9129 19.6126 18.8929 20.0151 19.2709C20.4178 19.6489 20.4378 20.2819 20.0598 20.6844C19.0907 21.7165 17.6062 22.3333 15.9974 22.3333C14.3886 22.3333 12.904 21.7165 11.935 20.6844C11.557 20.2819 11.577 19.6489 11.9796 19.2709Z" fill="white"/>
<path fill-rule="evenodd" clip-rule="evenodd" d="M10.6641 14.6663C10.6641 13.9299 11.2584 13.333 11.9914 13.333H12.0033C12.7364 13.333 13.3307 13.9299 13.3307 14.6663C13.3307 15.4027 12.7364 15.9997 12.0033 15.9997H11.9914C11.2584 15.9997 10.6641 15.4027 10.6641 14.6663Z" fill="white"/>
<path fill-rule="evenodd" clip-rule="evenodd" d="M18.6641 14.6663C18.6641 13.9299 19.2583 13.333 19.9914 13.333H20.0034C20.7365 13.333 21.3307 13.9299 21.3307 14.6663C21.3307 15.4027 20.7365 15.9997 20.0034 15.9997H19.9914C19.2583 15.9997 18.6641 15.4027 18.6641 14.6663Z" fill="white"/>
<path d="M1.66406 17.9996C1.66406 16.7231 2.31636 15.5989 3.3058 14.9423C3.57941 14.7608 3.71621 14.67 3.85681 14.7453C3.9974 14.8208 3.9974 15.0017 3.9974 15.3637V20.6355C3.9974 20.9975 3.9974 21.1784 3.85681 21.2539C3.71621 21.3293 3.57941 21.2385 3.3058 21.0569C2.31636 20.4003 1.66406 19.2761 1.66406 17.9996Z" fill="white"/>
<path d="M28.3555 14.7464C29.5307 15.3572 30.3333 16.5859 30.3333 18.0019C30.3333 19.4179 29.5307 20.6464 28.3555 21.2573C28.1888 21.3439 28 21.2159 28 21.0281V14.9756C28 14.7879 28.1888 14.6597 28.3555 14.7464Z" fill="white"/>
<path d="M9.33333 1.66699C8.04467 1.66699 7 2.71166 7 4.00033C7 4.93113 7.54501 5.73463 8.33333 6.10911V8.73621C8.69139 8.62765 9.07156 8.55055 9.47316 8.49469C9.74275 8.45719 10.0293 8.42843 10.3333 8.40637V6.10911C11.1217 5.73463 11.6667 4.93113 11.6667 4.00033C11.6667 2.71166 10.622 1.66699 9.33333 1.66699Z" fill="white"/>
<path d="M23.6693 8.73621C23.3113 8.62763 22.931 8.55055 22.5294 8.49469C22.2598 8.45719 21.9733 8.42843 21.6693 8.40637V6.10911C20.881 5.73463 20.3359 4.93113 20.3359 4.00033C20.3359 2.71166 21.3806 1.66699 22.6693 1.66699C23.9579 1.66699 25.0026 2.71166 25.0026 4.00033C25.0026 4.93113 24.4575 5.73463 23.6693 6.10911V8.73621Z" fill="white"/>
</svg>
