<svg width="591" height="132" viewBox="0 0 591 132" fill="none" xmlns="http://www.w3.org/2000/svg">
<g clip-path="url(#clip0_21_117)">
<path d="M277.818 85.4545C277.818 95.2727 276.045 103.758 272.5 110.909C268.955 118.061 264.091 123.576 257.909 127.455C251.727 131.333 244.667 133.273 236.727 133.273C228.788 133.273 221.727 131.333 215.545 127.455C209.364 123.576 204.5 118.061 200.955 110.909C197.409 103.758 195.636 95.2727 195.636 85.4545C195.636 75.6364 197.409 67.1515 200.955 60C204.5 52.8485 209.364 47.3333 215.545 43.4545C221.727 39.5758 228.788 37.6364 236.727 37.6364C244.667 37.6364 251.727 39.5758 257.909 43.4545C264.091 47.3333 268.955 52.8485 272.5 60C276.045 67.1515 277.818 75.6364 277.818 85.4545ZM266.909 85.4545C266.909 77.3939 265.561 70.5909 262.864 65.0455C260.197 59.5 256.576 55.303 252 52.4545C247.455 49.6061 242.364 48.1818 236.727 48.1818C231.091 48.1818 225.985 49.6061 221.409 52.4545C216.864 55.303 213.242 59.5 210.545 65.0455C207.879 70.5909 206.545 77.3939 206.545 85.4545C206.545 93.5151 207.879 100.318 210.545 105.864C213.242 111.409 216.864 115.606 221.409 118.455C225.985 121.303 231.091 122.727 236.727 122.727C242.364 122.727 247.455 121.303 252 118.455C256.576 115.606 260.197 111.409 262.864 105.864C265.561 100.318 266.909 93.5151 266.909 85.4545ZM295.318 158.182V62.1818H305.682V73.2727H306.955C307.742 72.0606 308.833 70.5151 310.227 68.6364C311.652 66.7273 313.682 65.0303 316.318 63.5455C318.985 62.0303 322.591 61.2727 327.136 61.2727C333.015 61.2727 338.197 62.7424 342.682 65.6818C347.167 68.6212 350.667 72.7879 353.182 78.1818C355.697 83.5758 356.955 89.9394 356.955 97.2727C356.955 104.667 355.697 111.076 353.182 116.5C350.667 121.894 347.182 126.076 342.727 129.045C338.273 131.985 333.136 133.455 327.318 133.455C322.833 133.455 319.242 132.712 316.545 131.227C313.848 129.712 311.773 128 310.318 126.091C308.864 124.152 307.742 122.545 306.955 121.273H306.045V158.182H295.318ZM305.864 97.0909C305.864 102.364 306.636 107.015 308.182 111.045C309.727 115.045 311.985 118.182 314.955 120.455C317.924 122.697 321.561 123.818 325.864 123.818C330.348 123.818 334.091 122.636 337.091 120.273C340.121 117.879 342.394 114.667 343.909 110.636C345.455 106.576 346.227 102.061 346.227 97.0909C346.227 92.1818 345.47 87.7576 343.955 83.8182C342.47 79.8485 340.212 76.7121 337.182 74.4091C334.182 72.0758 330.409 70.9091 325.864 70.9091C321.5 70.9091 317.833 72.0151 314.864 74.2273C311.894 76.4091 309.652 79.4697 308.136 83.4091C306.621 87.3182 305.864 91.8788 305.864 97.0909ZM425.682 62.1818C425.136 57.5758 422.924 54 419.045 51.4545C415.167 48.9091 410.409 47.6364 404.773 47.6364C400.652 47.6364 397.045 48.303 393.955 49.6364C390.894 50.9697 388.5 52.803 386.773 55.1364C385.076 57.4697 384.227 60.1212 384.227 63.0909C384.227 65.5758 384.818 67.7121 386 69.5C387.212 71.2576 388.758 72.7273 390.636 73.9091C392.515 75.0606 394.485 76.0151 396.545 76.7727C398.606 77.5 400.5 78.0909 402.227 78.5455L411.682 81.0909C414.106 81.7273 416.803 82.6061 419.773 83.7273C422.773 84.8485 425.636 86.3788 428.364 88.3182C431.121 90.2273 433.394 92.6818 435.182 95.6818C436.97 98.6818 437.864 102.364 437.864 106.727C437.864 111.758 436.545 116.303 433.909 120.364C431.303 124.424 427.485 127.652 422.455 130.045C417.455 132.439 411.379 133.636 404.227 133.636C397.561 133.636 391.788 132.561 386.909 130.409C382.061 128.258 378.242 125.258 375.455 121.409C372.697 117.561 371.136 113.091 370.773 108H382.409C382.712 111.515 383.894 114.424 385.955 116.727C388.045 119 390.682 120.697 393.864 121.818C397.076 122.909 400.53 123.455 404.227 123.455C408.53 123.455 412.394 122.758 415.818 121.364C419.242 119.939 421.955 117.97 423.955 115.455C425.955 112.909 426.955 109.939 426.955 106.545C426.955 103.455 426.091 100.939 424.364 99C422.636 97.0606 420.364 95.4848 417.545 94.2727C414.727 93.0606 411.682 92 408.409 91.0909L396.955 87.8182C389.682 85.7273 383.924 82.7424 379.682 78.8636C375.439 74.9848 373.318 69.9091 373.318 63.6364C373.318 58.4242 374.727 53.8788 377.545 50C380.394 46.0909 384.212 43.0606 389 40.9091C393.818 38.7273 399.197 37.6364 405.136 37.6364C411.136 37.6364 416.47 38.7121 421.136 40.8636C425.803 42.9848 429.5 45.8939 432.227 49.5909C434.985 53.2879 436.439 57.4848 436.591 62.1818H425.682ZM484.216 133.455C477.489 133.455 471.686 131.97 466.807 129C461.958 126 458.216 121.818 455.58 116.455C452.973 111.061 451.67 104.788 451.67 97.6364C451.67 90.4848 452.973 84.1818 455.58 78.7273C458.216 73.2424 461.883 68.9697 466.58 65.9091C471.307 62.8182 476.822 61.2727 483.125 61.2727C486.761 61.2727 490.352 61.8788 493.898 63.0909C497.443 64.303 500.67 66.2727 503.58 69C506.489 71.697 508.807 75.2727 510.534 79.7273C512.261 84.1818 513.125 89.6667 513.125 96.1818V100.727H459.307V91.4545H502.216C502.216 87.5151 501.428 84 499.852 80.9091C498.307 77.8182 496.095 75.3788 493.216 73.5909C490.367 71.803 487.004 70.9091 483.125 70.9091C478.852 70.9091 475.155 71.9697 472.034 74.0909C468.943 76.1818 466.564 78.9091 464.898 82.2727C463.231 85.6364 462.398 89.2424 462.398 93.0909V99.2727C462.398 104.545 463.307 109.015 465.125 112.682C466.973 116.318 469.534 119.091 472.807 121C476.08 122.879 479.883 123.818 484.216 123.818C487.034 123.818 489.58 123.424 491.852 122.636C494.155 121.818 496.14 120.606 497.807 119C499.473 117.364 500.761 115.333 501.67 112.909L512.034 115.818C510.943 119.333 509.11 122.424 506.534 125.091C503.958 127.727 500.777 129.788 496.989 131.273C493.201 132.727 488.943 133.455 484.216 133.455ZM557.807 133.455C551.261 133.455 545.625 131.909 540.898 128.818C536.17 125.727 532.534 121.47 529.989 116.045C527.443 110.621 526.17 104.424 526.17 97.4545C526.17 90.3636 527.473 84.1061 530.08 78.6818C532.716 73.2273 536.383 68.9697 541.08 65.9091C545.807 62.8182 551.322 61.2727 557.625 61.2727C562.534 61.2727 566.958 62.1818 570.898 64C574.837 65.8182 578.064 68.3636 580.58 71.6364C583.095 74.9091 584.655 78.7273 585.261 83.0909H574.534C573.716 79.9091 571.898 77.0909 569.08 74.6364C566.292 72.1515 562.534 70.9091 557.807 70.9091C553.625 70.9091 549.958 72 546.807 74.1818C543.686 76.3333 541.246 79.3788 539.489 83.3182C537.761 87.2273 536.898 91.8182 536.898 97.0909C536.898 102.485 537.746 107.182 539.443 111.182C541.17 115.182 543.595 118.288 546.716 120.5C549.867 122.712 553.564 123.818 557.807 123.818C560.595 123.818 563.125 123.333 565.398 122.364C567.67 121.394 569.595 120 571.17 118.182C572.746 116.364 573.867 114.182 574.534 111.636H585.261C584.655 115.758 583.155 119.47 580.761 122.773C578.398 126.045 575.261 128.652 571.352 130.591C567.473 132.5 562.958 133.455 557.807 133.455Z" fill="white"/>
<path d="M82.1382 152.287C82.1382 144.55 82.1374 136.814 82.1403 129.077C82.1403 128.661 82.0966 128.218 82.217 127.842C82.2933 127.603 82.6401 127.3 82.8607 127.305C88.3753 127.422 93.6853 126.318 98.5174 123.494C109.489 117.08 116.13 107.107 117.877 93.833C120.591 73.209 107.662 54.5086 88.6066 50.9651C87.0235 50.671 85.405 50.5747 83.7988 50.451C82.365 50.3405 82.1456 50.1506 82.1424 48.5641C82.1337 44.7824 82.1386 41.0012 82.1386 37.219C82.1386 25.4578 82.1386 13.6966 82.1403 1.93544C82.1403 1.48514 82.0958 1.01398 82.2054 0.592509C82.2698 0.344951 82.6071 -0.0104138 82.8063 0.000233791C86.1807 0.183462 89.5724 0.243799 92.92 0.686563C96.3566 1.14086 99.7426 2.0224 103.163 2.63996C109.685 3.81786 115.755 6.38882 121.53 9.73173C141.237 21.1398 154.718 38.2368 161.542 61.2166C162.727 65.2055 163.306 69.418 163.988 73.5608C164.888 79.0301 165.244 84.5651 165.106 90.121C164.66 107.985 159.717 124.292 150.439 139.108C137.228 160.202 118.758 172.413 95.5995 176.607C91.7686 177.301 87.8404 177.397 83.9526 177.694C82.3898 177.814 82.1432 177.485 82.1419 175.808C82.1366 167.968 82.1395 160.127 82.1386 152.286L82.1382 152.287Z" fill="url(#paint0_linear_21_117)"/>
<path d="M37.7354 14.6816C37.695 16.2602 37.6253 17.7264 37.6253 19.1931C37.6196 65.8227 37.6204 112.452 37.6233 159.081C37.6233 160.083 37.646 161.086 37.693 162.086C37.7214 162.691 37.429 162.844 36.9775 162.715C36.6748 162.629 36.3788 162.451 36.1218 162.252C34.6571 161.117 33.2126 159.951 31.7442 158.82C31.0774 158.307 30.7776 157.647 30.8304 156.773C30.8555 156.359 30.8328 155.941 30.8328 155.525C30.8328 110.907 30.8328 66.2903 30.8332 21.6731C30.8332 21.1181 30.7669 20.5458 30.8716 20.0139C30.9499 19.6182 31.1743 19.1443 31.4732 18.9287C33.4213 17.5228 35.406 16.1763 37.3829 14.8174C37.5053 14.7331 37.6633 14.7083 37.7354 14.6816Z" fill="url(#paint1_linear_21_117)"/>
<path d="M28.3256 22.4746C28.2699 23.7967 28.1771 24.9768 28.1771 26.1574C28.1697 67.8535 28.1705 109.55 28.1734 151.246C28.1734 152.213 28.1866 153.183 28.2419 154.148C28.2806 154.828 27.9627 154.976 27.4782 154.775C27.1611 154.644 26.8712 154.381 26.6246 154.117C24.9557 152.333 23.3215 150.51 21.6337 148.747C20.8325 147.91 20.5483 146.966 20.55 145.773C20.5727 125.03 20.5661 104.285 20.5661 83.5415C20.5661 66.2315 20.5743 48.9216 20.5483 31.6121C20.5467 30.4209 20.8003 29.5065 21.6444 28.6751C23.1644 27.1773 24.5471 25.5185 26.0666 24.0207C26.7079 23.3885 27.5512 22.9937 28.326 22.4751L28.3256 22.4746Z" fill="url(#paint2_linear_21_117)"/>
<path d="M47.3533 8.86241C46.6729 11.3841 47.0156 13.873 47.0102 16.3353C46.9752 31.8405 46.9653 47.3461 47.0127 62.8512C47.0238 66.4302 46.1517 69.8459 45.7166 73.3414C45.4053 75.8436 45.1109 78.3653 45.0573 80.8844C44.9546 85.7379 45.0556 90.5963 45.0197 95.4525C44.9888 99.6402 45.835 103.695 46.4787 107.786C46.7459 109.486 46.9698 111.218 46.9735 112.936C47.0082 130.592 46.9925 148.248 46.9962 165.903C46.9962 166.557 47.0238 167.213 47.0902 167.862C47.1575 168.52 46.7946 168.79 46.3562 168.56C44.7105 167.695 43.0944 166.76 41.5043 165.782C41.2689 165.636 41.172 165.129 41.1167 164.771C41.0491 164.331 41.0887 163.872 41.0887 163.421C41.0878 146.286 41.0565 129.15 41.1245 112.014C41.134 109.649 41.4726 107.245 41.9526 104.929C42.6515 101.558 43.1229 98.1961 43.075 94.7329C43.0119 90.1899 43.188 85.639 43.0119 81.1031C42.901 78.2486 42.4639 75.3862 41.9307 72.5805C41.4375 69.9856 41.0664 67.4169 41.0713 64.7567C41.1039 47.7254 41.0878 30.6936 41.0895 13.6623C41.0895 13.212 41.0454 12.7444 41.1419 12.3167C41.2078 12.0239 41.4309 11.6707 41.6742 11.5421C43.4194 10.6206 45.1872 9.74838 46.9509 8.86774C47.0267 8.83003 47.1331 8.86286 47.3542 8.86286L47.3533 8.86241Z" fill="url(#paint3_linear_21_117)"/>
<path d="M18.5955 33.709C18.5691 36.6686 18.5209 39.5874 18.5204 42.5061C18.5151 75.0728 18.5167 107.64 18.5196 140.206C18.5196 141.14 18.5695 142.073 18.5642 143.007C18.5629 143.248 18.5002 143.622 18.3584 143.696C18.1807 143.787 17.8532 143.698 17.6619 143.566C17.4277 143.404 17.2409 143.138 17.0801 142.882C15.1477 139.811 13.1902 136.757 11.3251 133.639C10.9329 132.984 10.7127 132.087 10.7119 131.301C10.6855 102.862 10.69 74.4224 10.7234 45.983C10.7242 45.2306 10.9391 44.3784 11.3082 43.7439C12.8467 41.1007 14.4788 38.5199 16.0854 35.9224C16.7271 34.8851 17.3897 33.8607 18.5951 33.7094L18.5955 33.709Z" fill="url(#paint4_linear_21_117)"/>
<path d="M56.652 4.56445C56.579 5.57509 56.4536 6.50853 56.4528 7.44242C56.4404 21.5288 56.3844 35.6156 56.4767 49.7016C56.5089 54.584 56.1988 59.386 55.2009 64.1486C54.9555 65.3203 54.8763 66.5541 54.8743 67.7595C54.8524 79.8335 54.9345 91.9084 54.8269 103.981C54.7844 108.726 55.2009 113.371 56.1571 117.986C56.3518 118.924 56.4351 119.908 56.4355 120.87C56.4442 137.698 56.4318 154.525 56.4235 171.352C56.4227 173.058 56.3373 173.121 54.7683 172.512C54.01 172.218 53.2677 171.875 52.5036 171.601C51.711 171.317 51.3815 170.733 51.3923 169.87C51.3984 169.384 51.3869 168.898 51.3869 168.413C51.3869 154.395 51.4211 140.378 51.365 126.362C51.349 122.285 51.5786 118.267 52.356 114.266C52.7225 112.379 52.8718 110.412 52.878 108.481C52.9217 95.2624 52.9597 82.0424 52.8549 68.8243C52.8322 65.9357 52.2075 63.055 51.8986 60.1664C51.6929 58.2414 51.4141 56.3089 51.4092 54.3785C51.3692 39.1125 51.3865 23.8464 51.3885 8.58039C51.3885 8.06043 51.3283 7.51518 51.4553 7.02982C51.5374 6.71616 51.8661 6.36612 52.1597 6.24634C53.4953 5.70109 54.8578 5.23126 56.2108 4.73437C56.3493 4.68335 56.4866 4.62878 56.652 4.56534V4.56445Z" fill="url(#paint5_linear_21_117)"/>
<path d="M66.0689 1.94966C66.0166 2.70298 65.8999 3.60404 65.899 4.5051C65.8875 19.2818 65.9572 34.0589 65.8438 48.8343C65.8157 52.4887 65.1964 56.1368 64.8661 59.7894C64.7852 60.6847 64.7341 61.5875 64.7337 62.4868C64.7267 79.3101 64.6809 96.1333 64.7708 112.956C64.789 116.331 65.3366 119.701 65.6277 123.075C65.7345 124.315 65.8813 125.559 65.8826 126.801C65.899 141.924 65.8912 157.048 65.8933 172.171C65.8933 173.105 65.9749 174.042 65.9073 174.968C65.8892 175.218 65.4306 175.66 65.2285 175.627C64.2446 175.468 63.2587 175.243 62.3197 174.897C62.0183 174.786 61.7671 174.262 61.657 173.873C61.5395 173.458 61.6096 172.98 61.6096 172.529C61.6084 157.752 61.561 142.975 61.6467 128.199C61.6649 125.06 62.1853 121.926 62.4434 118.788C62.5853 117.062 62.7527 115.331 62.7552 113.602C62.7787 96.9519 62.8244 80.3016 62.7242 63.6527C62.7032 60.1696 62.0979 56.6918 61.7857 53.2087C61.6867 52.1058 61.617 50.9949 61.6162 49.888C61.6051 34.7644 61.6088 19.6412 61.61 4.51752C61.61 4.13598 61.57 3.74024 61.6525 3.37866C61.7127 3.11469 61.9119 2.7265 62.104 2.68435C63.4261 2.39509 64.763 2.18214 66.0698 1.94922L66.0689 1.94966Z" fill="url(#paint6_linear_21_117)"/>
<path d="M71.8852 151.529C71.8852 144.07 71.8785 136.611 71.8934 129.152C71.8955 128.184 71.9144 127.197 72.0864 126.253C72.7614 122.551 72.822 118.816 72.8171 115.062C72.7928 96.3628 72.8159 77.6629 72.7903 58.963C72.7878 57.1662 72.5668 55.3694 72.4456 53.5731C72.2592 50.8122 71.9206 48.0518 71.9099 45.2901C71.8555 31.0662 71.8843 16.8418 71.8868 2.61747C71.8868 2.1676 71.8468 1.69423 71.9643 1.27675C72.0324 1.03585 72.3569 0.76877 72.6039 0.715532C73.561 0.509234 74.533 0.381462 75.5004 0.231952C75.6468 0.209325 75.8946 0.172059 75.9288 0.239937C76.0063 0.39211 76.0092 0.609943 75.9898 0.794058C75.9288 1.36903 75.7775 1.94134 75.7771 2.51454C75.7647 15.7673 75.742 29.0205 75.782 42.2733C75.7948 46.5101 75.7486 50.7248 74.9503 54.8978C74.7771 55.8037 74.7965 56.7612 74.7965 57.695C74.789 76.4988 74.82 95.3025 74.7705 114.106C74.7589 118.416 74.9037 122.69 75.6901 126.923C75.7589 127.293 75.7701 127.681 75.7701 128.06C75.7721 143.533 75.77 159.006 75.7663 174.48C75.7663 175 75.7222 175.521 75.742 176.04C75.789 177.256 75.7564 177.3 74.5969 177.225C71.9124 177.051 71.8856 177.02 71.8856 174.115L71.8852 151.529Z" fill="url(#paint7_linear_21_117)"/>
<path d="M9.19574 50.1484C9.12852 51.5805 9.00687 52.9674 9.00646 54.3547C8.9945 77.0413 8.99698 99.7278 9.00069 122.414C9.00069 123.799 9.04935 125.183 9.05058 126.567C9.05058 126.779 8.94584 127.142 8.83533 127.168C8.62461 127.217 8.30874 127.149 8.15657 126.993C7.93266 126.765 7.78668 126.43 7.6539 126.118C2.20778 113.314 -0.362914 99.8773 0.0412049 85.7958C0.365325 74.5009 2.61561 63.6621 6.77597 53.2859C7.28731 52.0113 7.56112 50.5109 9.19574 50.1484Z" fill="url(#paint8_linear_21_117)"/>
</g>
<defs>
<linearGradient id="paint0_linear_21_117" x1="263.159" y1="-37.1973" x2="40.7404" y2="107.56" gradientUnits="userSpaceOnUse">
<stop stop-color="#D0DBE6"/>
<stop offset="0.5" stop-color="#E7EAF1"/>
<stop offset="1" stop-color="#E4E8EF"/>
</linearGradient>
<linearGradient id="paint1_linear_21_117" x1="384.089" y1="-172.558" x2="-1287.58" y2="915.418" gradientUnits="userSpaceOnUse">
<stop stop-color="#D0DBE6"/>
<stop offset="0.5" stop-color="#E7EAF1"/>
<stop offset="1" stop-color="#E4E8EF"/>
</linearGradient>
<linearGradient id="paint2_linear_21_117" x1="227.182" y1="-61.3755" x2="-1096.83" y2="800.329" gradientUnits="userSpaceOnUse">
<stop stop-color="#D0DBE6"/>
<stop offset="0.5" stop-color="#E7EAF1"/>
<stop offset="1" stop-color="#E4E8EF"/>
</linearGradient>
<linearGradient id="paint3_linear_21_117" x1="574.173" y1="-309.136" x2="-1415.99" y2="986.125" gradientUnits="userSpaceOnUse">
<stop stop-color="#D0DBE6"/>
<stop offset="0.5" stop-color="#E7EAF1"/>
<stop offset="1" stop-color="#E4E8EF"/>
</linearGradient>
<linearGradient id="paint4_linear_21_117" x1="118.326" y1="13.2952" x2="-944.911" y2="705.283" gradientUnits="userSpaceOnUse">
<stop stop-color="#D0DBE6"/>
<stop offset="0.5" stop-color="#E7EAF1"/>
<stop offset="1" stop-color="#E4E8EF"/>
</linearGradient>
<linearGradient id="paint5_linear_21_117" x1="854.571" y1="-513.461" x2="-1625.74" y2="1100.81" gradientUnits="userSpaceOnUse">
<stop stop-color="#D0DBE6"/>
<stop offset="0.5" stop-color="#E7EAF1"/>
<stop offset="1" stop-color="#E4E8EF"/>
</linearGradient>
<linearGradient id="paint6_linear_21_117" x1="1205.52" y1="-771" x2="-1802.97" y2="1187.02" gradientUnits="userSpaceOnUse">
<stop stop-color="#D0DBE6"/>
<stop offset="0.5" stop-color="#E7EAF1"/>
<stop offset="1" stop-color="#E4E8EF"/>
</linearGradient>
<linearGradient id="paint7_linear_21_117" x1="1531.84" y1="-1009.27" x2="-1796.46" y2="1156.89" gradientUnits="userSpaceOnUse">
<stop stop-color="#D0DBE6"/>
<stop offset="0.5" stop-color="#E7EAF1"/>
<stop offset="1" stop-color="#E4E8EF"/>
</linearGradient>
<linearGradient id="paint8_linear_21_117" x1="31.8899" y1="71.2862" x2="-611.158" y2="489.802" gradientUnits="userSpaceOnUse">
<stop stop-color="#D0DBE6"/>
<stop offset="0.5" stop-color="#E7EAF1"/>
<stop offset="1" stop-color="#E4E8EF"/>
</linearGradient>
<clipPath id="clip0_21_117">
<rect width="591" height="132" fill="white"/>
</clipPath>
</defs>
</svg>
