<svg width="228" height="40" viewBox="0 0 228 40" fill="none" xmlns="http://www.w3.org/2000/svg">
<g clip-path="url(#clip0_115_14678)">
<path d="M20.0751 8.05285C19.4262 7.94661 18.7613 8.0071 18.1417 8.22878C17.522 8.45051 16.9675 8.82628 16.5292 9.32152C15.6926 10.2695 15.4323 11.5037 15.6332 12.7403C15.8152 13.8557 16.0565 14.9876 16.1109 16.0621C16.1869 17.6804 15.9433 19.2977 15.3944 20.8198C14.8977 22.1971 14.1901 23.2651 12.6737 23.5015C12.5612 23.5194 12.1518 23.5322 12.0355 23.5385C11.9193 23.5449 11.5515 23.5207 11.4378 23.5028C9.92141 23.2664 9.20742 22.1984 8.71203 20.8121C8.16315 19.29 7.91955 17.6727 7.99552 16.0544C8.04988 14.9838 8.29125 13.8506 8.47322 12.7327C8.67414 11.496 8.41382 10.2618 7.57726 9.31383C7.13754 8.81899 6.58163 8.44405 5.96081 8.22364C5.33996 8.00328 4.67423 7.94455 4.02502 8.05285C2.08021 8.37357 0.784924 10.1187 0.773551 11.9495C0.768124 12.6549 0.957631 13.3478 1.32073 13.9502C1.92604 14.9595 2.91929 15.6954 3.78618 16.4594C4.3599 16.9705 5.3519 18.4205 5.83843 19.9919C6.13285 20.9437 6.37297 21.9083 6.61051 22.8819C6.94413 24.2386 7.40284 27.2359 7.70487 28.5965C8.30767 31.3203 10.1526 31.9374 12.0014 32H12.0671C13.9159 31.9374 15.7912 31.319 16.3939 28.5952C16.6947 27.2346 17.1522 24.2361 17.4883 22.8806C17.7272 21.9122 17.966 20.9425 18.2604 19.9906C18.747 18.4192 19.7389 16.964 20.3127 16.4581C21.1795 15.6916 22.1715 14.9582 22.7781 13.949C23.1412 13.3466 23.3307 12.6536 23.3253 11.9482C23.3152 10.1136 22.025 8.36715 20.0751 8.05285Z" fill="url(#paint0_linear_115_14678)"/>
<path d="M49.0946 11.748L42.9506 28.5H38.8706L32.7266 11.748H36.3266L40.9346 25.068L45.5186 11.748H49.0946ZM63.4691 21.564C63.4691 22.044 63.4371 22.476 63.3731 22.86H53.6531C53.7331 23.82 54.0691 24.572 54.6611 25.116C55.2531 25.66 55.9811 25.932 56.8451 25.932C58.0931 25.932 58.9811 25.396 59.5091 24.324H63.1331C62.7491 25.604 62.0131 26.66 60.9251 27.492C59.8371 28.308 58.5011 28.716 56.9171 28.716C55.6371 28.716 54.4851 28.436 53.4611 27.876C52.4531 27.3 51.6611 26.492 51.0851 25.452C50.5251 24.412 50.2451 23.212 50.2451 21.852C50.2451 20.476 50.5251 19.268 51.0851 18.228C51.6451 17.188 52.4291 16.388 53.4371 15.828C54.4451 15.268 55.6051 14.988 56.9171 14.988C58.1811 14.988 59.3091 15.26 60.3011 15.804C61.3091 16.348 62.0851 17.124 62.6291 18.132C63.1891 19.124 63.4691 20.268 63.4691 21.564ZM59.9891 20.604C59.9731 19.74 59.6611 19.052 59.0531 18.54C58.4451 18.012 57.7011 17.748 56.8211 17.748C55.9891 17.748 55.2851 18.004 54.7091 18.516C54.1491 19.012 53.8051 19.708 53.6771 20.604H59.9891ZM73.2896 15.012C74.8736 15.012 76.1536 15.516 77.1296 16.524C78.1056 17.516 78.5936 18.908 78.5936 20.7V28.5H75.2336V21.156C75.2336 20.1 74.9696 19.292 74.4416 18.732C73.9136 18.156 73.1936 17.868 72.2816 17.868C71.3536 17.868 70.6176 18.156 70.0736 18.732C69.5456 19.292 69.2816 20.1 69.2816 21.156V28.5H65.9216V15.204H69.2816V16.86C69.7296 16.284 70.2976 15.836 70.9856 15.516C71.6896 15.18 72.4576 15.012 73.2896 15.012ZM87.6928 28.716C86.4128 28.716 85.2608 28.436 84.2368 27.876C83.2128 27.3 82.4048 26.492 81.8128 25.452C81.2368 24.412 80.9488 23.212 80.9488 21.852C80.9488 20.492 81.2448 19.292 81.8368 18.252C82.4448 17.212 83.2688 16.412 84.3088 15.852C85.3488 15.276 86.5088 14.988 87.7888 14.988C89.0688 14.988 90.2288 15.276 91.2688 15.852C92.3088 16.412 93.1248 17.212 93.7168 18.252C94.3248 19.292 94.6288 20.492 94.6288 21.852C94.6288 23.212 94.3168 24.412 93.6928 25.452C93.0848 26.492 92.2528 27.3 91.1968 27.876C90.1568 28.436 88.9888 28.716 87.6928 28.716ZM87.6928 25.788C88.3008 25.788 88.8688 25.644 89.3968 25.356C89.9408 25.052 90.3728 24.604 90.6928 24.012C91.0128 23.42 91.1728 22.7 91.1728 21.852C91.1728 20.588 90.8368 19.62 90.1648 18.948C89.5088 18.26 88.7008 17.916 87.7408 17.916C86.7808 17.916 85.9728 18.26 85.3168 18.948C84.6768 19.62 84.3568 20.588 84.3568 21.852C84.3568 23.116 84.6688 24.092 85.2928 24.78C85.9328 25.452 86.7328 25.788 87.6928 25.788ZM113.605 15.012C115.237 15.012 116.549 15.516 117.541 16.524C118.549 17.516 119.053 18.908 119.053 20.7V28.5H115.693V21.156C115.693 20.116 115.429 19.324 114.901 18.78C114.373 18.22 113.653 17.94 112.741 17.94C111.829 17.94 111.101 18.22 110.557 18.78C110.029 19.324 109.765 20.116 109.765 21.156V28.5H106.405V21.156C106.405 20.116 106.141 19.324 105.613 18.78C105.085 18.22 104.365 17.94 103.453 17.94C102.525 17.94 101.789 18.22 101.245 18.78C100.717 19.324 100.453 20.116 100.453 21.156V28.5H97.0935V15.204H100.453V16.812C100.885 16.252 101.437 15.812 102.109 15.492C102.797 15.172 103.549 15.012 104.365 15.012C105.405 15.012 106.333 15.236 107.149 15.684C107.965 16.116 108.597 16.74 109.045 17.556C109.477 16.788 110.101 16.172 110.917 15.708C111.749 15.244 112.645 15.012 113.605 15.012ZM150.352 11.748L145.672 28.5H141.712L138.568 16.572L135.28 28.5L131.344 28.524L126.832 11.748H130.432L133.384 24.756L136.792 11.748H140.536L143.752 24.684L146.728 11.748H150.352ZM151.682 21.804C151.682 20.46 151.946 19.268 152.474 18.228C153.018 17.188 153.746 16.388 154.658 15.828C155.586 15.268 156.618 14.988 157.754 14.988C158.746 14.988 159.61 15.188 160.346 15.588C161.098 15.988 161.698 16.492 162.146 17.1V15.204H165.53V28.5H162.146V26.556C161.714 27.18 161.114 27.7 160.346 28.116C159.594 28.516 158.722 28.716 157.73 28.716C156.61 28.716 155.586 28.428 154.658 27.852C153.746 27.276 153.018 26.468 152.474 25.428C151.946 24.372 151.682 23.164 151.682 21.804ZM162.146 21.852C162.146 21.036 161.986 20.34 161.666 19.764C161.346 19.172 160.914 18.724 160.37 18.42C159.826 18.1 159.242 17.94 158.618 17.94C157.994 17.94 157.418 18.092 156.89 18.396C156.362 18.7 155.93 19.148 155.594 19.74C155.274 20.316 155.114 21.004 155.114 21.804C155.114 22.604 155.274 23.308 155.594 23.916C155.93 24.508 156.362 24.964 156.89 25.284C157.434 25.604 158.01 25.764 158.618 25.764C159.242 25.764 159.826 25.612 160.37 25.308C160.914 24.988 161.346 24.54 161.666 23.964C161.986 23.372 162.146 22.668 162.146 21.852ZM172.172 10.74V28.5H168.812V10.74H172.172ZM178.851 10.74V28.5H175.491V10.74H178.851ZM194.531 21.564C194.531 22.044 194.499 22.476 194.435 22.86H184.715C184.795 23.82 185.131 24.572 185.723 25.116C186.315 25.66 187.043 25.932 187.907 25.932C189.155 25.932 190.043 25.396 190.571 24.324H194.195C193.811 25.604 193.075 26.66 191.987 27.492C190.899 28.308 189.563 28.716 187.979 28.716C186.699 28.716 185.547 28.436 184.523 27.876C183.515 27.3 182.723 26.492 182.147 25.452C181.587 24.412 181.307 23.212 181.307 21.852C181.307 20.476 181.587 19.268 182.147 18.228C182.707 17.188 183.491 16.388 184.499 15.828C185.507 15.268 186.667 14.988 187.979 14.988C189.243 14.988 190.371 15.26 191.363 15.804C192.371 16.348 193.147 17.124 193.691 18.132C194.251 19.124 194.531 20.268 194.531 21.564ZM191.051 20.604C191.035 19.74 190.723 19.052 190.115 18.54C189.507 18.012 188.763 17.748 187.883 17.748C187.051 17.748 186.347 18.004 185.771 18.516C185.211 19.012 184.867 19.708 184.739 20.604H191.051ZM200.896 17.964V24.396C200.896 24.844 201 25.172 201.208 25.38C201.432 25.572 201.8 25.668 202.312 25.668H203.872V28.5H201.76C198.928 28.5 197.512 27.124 197.512 24.372V17.964H195.928V15.204H197.512V11.916H200.896V15.204H203.872V17.964H200.896Z" fill="white"/>
</g>
<defs>
<linearGradient id="paint0_linear_115_14678" x1="2.98289" y1="10.8347" x2="46.3187" y2="39.2944" gradientUnits="userSpaceOnUse">
<stop stop-color="#11A97D"/>
<stop offset="1" stop-color="#6610F2"/>
</linearGradient>
<clipPath id="clip0_115_14678">
<rect width="227" height="40" fill="white" transform="translate(0.773438)"/>
</clipPath>
</defs>
</svg>
