<svg width="142" height="40" viewBox="0 0 142 40" fill="none" xmlns="http://www.w3.org/2000/svg">
<g clip-path="url(#clip0_115_14731)">
<path d="M46.4062 33.3659V6.63413H55.1471C58.0457 6.63413 60.2284 7.23507 61.6902 8.43695C63.1521 9.63382 63.883 11.4116 63.883 13.7703C63.883 15.0172 63.5325 16.129 62.8166 17.0855C62.1108 18.052 61.1446 18.7981 59.918 19.324C61.3648 19.7246 62.5063 20.4958 63.3473 21.6226C64.1884 22.7593 64.5989 24.1064 64.5989 25.6639C64.5989 28.0626 63.8229 29.9456 62.266 31.3127C60.714 32.6848 58.5213 33.3659 55.6828 33.3659H46.4062ZM49.9356 20.9215V30.4714H55.7479C57.3899 30.4714 58.6865 30.0507 59.6327 29.2044C60.5789 28.3581 61.0545 27.1913 61.0545 25.7139C61.0545 22.519 59.3073 20.9215 55.8029 20.9215H49.9356ZM49.9356 18.0269H55.2522C56.7942 18.0269 58.0257 17.6363 58.9569 16.8651C59.878 16.0939 60.3436 15.0523 60.3436 13.7302C60.3436 12.2579 59.913 11.1913 59.057 10.5252C58.2009 9.85417 56.8943 9.52365 55.1471 9.52365H49.9356V18.0269ZM84.5587 26.375H73.3547L70.8416 33.3709H67.2071L77.4148 6.63413H80.4986L90.7213 33.3709H87.1068L84.5587 26.375ZM74.4261 23.4805H83.5174L78.9617 10.9859L74.4261 23.4805ZM102.196 21.4523C99.1768 20.5809 96.9791 19.5093 95.5974 18.2423C94.2207 16.9753 93.5298 15.4078 93.5298 13.5499C93.5298 11.4467 94.3759 9.70393 96.053 8.32177C97.7401 6.94462 99.9228 6.25354 102.611 6.25354C104.448 6.25354 106.09 6.6091 107.522 7.32021C108.964 8.02631 110.07 9.00784 110.861 10.2598C111.652 11.5067 112.048 12.8739 112.048 14.3512H108.508C108.508 12.7337 107.993 11.4617 106.967 10.5352C105.94 9.61379 104.483 9.14806 102.611 9.14806C100.874 9.14806 99.5223 9.52866 98.5511 10.2949C97.5748 11.0661 97.0892 12.1227 97.0892 13.4848C97.0892 14.5765 97.5448 15.503 98.476 16.2542C99.3971 17.0053 100.969 17.6964 103.192 18.3224C105.41 18.9484 107.152 19.6395 108.403 20.3906C109.655 21.1418 110.586 22.0182 111.192 23.0298C111.798 24.0313 112.098 25.2182 112.098 26.5753C112.098 28.7437 111.252 30.4814 109.565 31.7834C107.873 33.0855 105.62 33.7365 102.791 33.7365C100.954 33.7365 99.2369 33.3859 97.6499 32.6848C96.063 31.9787 94.8364 31.0122 93.9704 29.7903C93.1043 28.5684 92.6788 27.1762 92.6788 25.6238H96.2182C96.2182 27.2363 96.8139 28.5083 98.0104 29.4398C99.2019 30.3712 100.794 30.842 102.791 30.842C104.654 30.842 106.075 30.4614 107.067 29.7002C108.063 28.944 108.559 27.9074 108.559 26.6053C108.559 25.2933 108.093 24.2817 107.182 23.5656C106.276 22.8595 104.609 22.1484 102.196 21.4523ZM131.737 21.0316H120.158V30.4714H133.61V33.3659H116.634V6.63413H133.429V9.52866H120.158V18.1371H131.737V21.0316Z" fill="white"/>
<path d="M24.3879 36C33.2189 36 40.3828 28.8388 40.3828 20C40.3828 11.1662 33.2239 4 24.3879 4C16.0125 4 9.13397 10.4501 8.45312 18.6529H29.5894V21.3421H8.45312C9.13397 29.5499 16.0125 36 24.3879 36Z" fill="white"/>
</g>
<defs>
<clipPath id="clip0_115_14731">
<rect width="125.156" height="32" fill="white" transform="translate(8.45312 4)"/>
</clipPath>
</defs>
</svg>
