<svg width="147" height="40" viewBox="0 0 147 40" fill="none" xmlns="http://www.w3.org/2000/svg">
<g clip-path="url(#clip0_115_14681)">
<path d="M82.8166 31.6176C82.0898 32.6525 81.1254 33.4216 79.9233 33.9251C78.7212 34.4007 77.3793 34.6384 75.8977 34.6384C74.7236 34.6384 73.6474 34.4986 72.6688 34.2188C71.7184 33.9391 70.8798 33.5195 70.1528 32.9602C69.4261 32.3728 68.853 31.6595 68.4336 30.8204C68.0142 29.9534 67.8047 28.9742 67.8047 27.8834C67.8047 26.6807 68.0423 25.6597 68.5174 24.8206C68.9928 23.9535 69.6358 23.2542 70.4464 22.7227C71.285 22.1913 72.2636 21.7997 73.3817 21.5479C74.4999 21.2683 75.6741 21.1284 76.9041 21.1284H82.5651C82.5651 19.506 82.2017 18.2474 81.4749 17.3523C80.7479 16.4572 79.476 15.9957 77.659 15.9677C76.5966 15.9677 75.6741 16.1495 74.8914 16.5132C74.1366 16.8768 73.6333 17.4781 73.3817 18.3172H68.4755C68.6433 17.1425 69.0207 16.1495 69.6077 15.3384C70.2228 14.5272 70.9496 13.8559 71.7882 13.3244C72.6549 12.793 73.6055 12.4154 74.6398 12.1916C75.702 11.9679 76.7644 11.856 77.8266 11.856C79.1965 11.856 80.4684 12.0378 81.6425 12.4014C82.8166 12.765 83.837 13.3804 84.7036 14.2475C85.6821 15.2544 86.339 16.4572 86.6746 17.8558C87.01 19.2542 87.1776 20.7788 87.1776 22.429V34.3448H83.0263L82.8166 31.6176ZM82.5651 24.5269H77.9525C77.1417 24.5269 76.3309 24.5969 75.5203 24.7367C74.7096 24.8486 74.0107 25.1423 73.4236 25.6177C72.8645 26.0653 72.585 26.7227 72.585 27.5897C72.585 28.6527 72.9625 29.4637 73.7171 30.0232C74.4999 30.5546 75.4504 30.8204 76.5687 30.8204C77.4352 30.8204 78.232 30.7084 78.9587 30.4848C79.7136 30.2609 80.3566 29.8974 80.8877 29.3939C81.4189 28.8625 81.8241 28.2051 82.1038 27.422C82.4114 26.6107 82.5651 25.6456 82.5651 24.5269Z" fill="#4C576F"/>
<path d="M95.0376 3.04504C95.9043 3.04504 96.6171 3.31076 97.1763 3.84222C97.7633 4.37368 98.0568 5.10092 98.0568 6.02397C98.0568 6.91904 97.7633 7.63231 97.1763 8.16376C96.6171 8.6952 95.9043 8.96094 95.0376 8.96094C94.1152 8.96094 93.3744 8.6952 92.8152 8.16376C92.256 7.63231 91.9766 6.91904 91.9766 6.02397C91.9766 5.10092 92.256 4.37368 92.8152 3.84222C93.3744 3.31076 94.1152 3.04504 95.0376 3.04504ZM92.6055 34.3447V12.2336H97.386V34.3447H92.6055Z" fill="#4C576F"/>
<path d="M135.378 11.856C137.14 11.856 138.691 12.1357 140.033 12.6951C141.375 13.2545 142.507 14.0377 143.43 15.0447C144.38 16.0237 145.093 17.2124 145.568 18.6109C146.043 20.0095 146.281 21.562 146.281 23.2681C146.281 25.0023 146.043 26.5688 145.568 27.9674C145.121 29.3379 144.436 30.5267 143.513 31.5337C142.591 32.5406 141.445 33.3099 140.075 33.8413C138.733 34.3727 137.167 34.6384 135.378 34.6384C133.617 34.6384 132.066 34.3727 130.724 33.8413C129.382 33.2818 128.25 32.5127 127.327 31.5337C126.433 30.5267 125.748 29.3239 125.273 27.9253C124.825 26.5269 124.602 24.9744 124.602 23.2681C124.602 21.562 124.825 20.0095 125.273 18.6109C125.748 17.2124 126.447 16.0237 127.369 15.0447C128.292 14.0377 129.424 13.2545 130.766 12.6951C132.108 12.1357 133.645 11.856 135.378 11.856ZM135.378 30.4848C136.469 30.4848 137.391 30.3028 138.146 29.9393C138.929 29.5477 139.558 29.0302 140.033 28.3869C140.536 27.7435 140.9 26.9883 141.123 26.1213C141.375 25.2541 141.501 24.317 141.501 23.3102C141.501 22.3032 141.375 21.3662 141.123 20.499C140.9 19.6039 140.536 18.8348 140.033 18.1914C139.558 17.5481 138.929 17.0446 138.146 16.681C137.391 16.3174 136.469 16.1355 135.378 16.1355C134.316 16.1355 133.407 16.3174 132.653 16.681C131.898 17.0446 131.269 17.5481 130.766 18.1914C130.263 18.8348 129.885 19.6039 129.634 20.499C129.41 21.3662 129.298 22.3032 129.298 23.3102C129.298 24.317 129.41 25.2541 129.634 26.1213C129.885 26.9883 130.249 27.7435 130.724 28.3869C131.227 29.0302 131.856 29.5477 132.611 29.9393C133.394 30.3028 134.316 30.4848 135.378 30.4848Z" fill="#4C576F"/>
<path d="M111.091 21.2542H107.652V5.55859H102.914V34.3447H107.652V25.4079H111.385L117.213 34.3447H122.748L115.2 22.7647L122.161 12.2335H116.794L111.091 21.2542Z" fill="#4C576F"/>
<path d="M64.5722 12.1707H58.9119V5.55859H57.4492L50.5703 14.9099V16.1192H54.1027V27.0629C54.1027 29.6463 54.6843 31.5058 55.8477 32.6414C57.0393 33.7768 59.0112 34.3447 61.7633 34.3447H64.402V30.1715H62.1888C60.9122 30.1715 60.0467 29.8593 59.5928 29.2347C59.1388 28.6101 58.9119 27.6591 58.9119 26.3815V16.1192H64.5722V12.1707Z" fill="#4C576F"/>
<path d="M44.3026 32.2563L36.6835 21.8988C35.8557 20.7733 34.6301 20.0991 33.3249 19.9505C33.0279 19.9159 32.7626 19.7435 32.6139 19.4833C32.4627 19.2231 32.4468 18.9074 32.5662 18.6312C33.0889 17.4262 33.1206 16.0273 32.5583 14.7479L27.4037 2.9677C26.6397 1.21845 24.9126 0.090332 23.0051 0.090332C21.0978 0.090332 19.3707 1.2211 18.6067 2.9677L13.4521 14.7479C12.8923 16.0273 12.9215 17.4262 13.4441 18.6312C13.5635 18.9074 13.5449 19.2231 13.3964 19.4833C13.2452 19.7435 12.9825 19.9159 12.6854 19.9505C11.3802 20.0991 10.1545 20.7733 9.32684 21.8988L1.7077 32.2563C0.577571 33.7931 0.463495 35.853 1.41589 37.5066C2.37093 39.1577 4.21204 40.0895 6.1062 39.8798L18.8799 38.457C20.2673 38.303 21.4639 37.5784 22.2438 36.5219C22.4216 36.2803 22.7054 36.137 23.0051 36.137C23.3049 36.137 23.5862 36.2803 23.7666 36.5219C24.5465 37.5784 25.743 38.303 27.1305 38.457L39.9042 39.8798C41.7984 40.0921 43.6394 39.1603 44.5945 37.5066C45.5468 35.853 45.4328 33.7931 44.3026 32.2563ZM16.7841 16.2264L21.9466 4.43293C22.1324 4.01088 22.5489 3.73748 23.0077 3.73748C23.4668 3.73748 23.8832 4.01088 24.0691 4.43293L29.2316 16.2264C29.3934 16.598 29.3589 17.028 29.136 17.3678C28.9132 17.7075 28.5365 17.9119 28.128 17.9119H17.8851C17.4792 17.9119 17.0998 17.7075 16.877 17.3678C16.6541 17.028 16.6196 16.598 16.7815 16.2264H16.7841ZM19.4343 34.1807C19.2513 34.5444 18.8958 34.7886 18.4926 34.8337L5.70562 36.2565C5.24932 36.3068 4.80364 36.084 4.57284 35.6858C4.34202 35.2875 4.37121 34.7912 4.64446 34.4196L12.2715 24.0516C12.513 23.7251 12.9003 23.5393 13.3062 23.5631C13.7121 23.5844 14.0782 23.81 14.2824 24.163L14.2904 24.1763L19.3973 33.0261L19.4052 33.0393C19.6095 33.3924 19.62 33.8224 19.4369 34.1833L19.4343 34.1807ZM24.0557 30.1779C23.8381 30.5521 23.4403 30.7858 23.0051 30.7858C22.5727 30.7858 22.1722 30.5549 21.9546 30.1805L18.031 23.3826C17.8135 23.0084 17.8135 22.5438 18.031 22.1696C18.2485 21.7952 18.6465 21.5617 19.0815 21.5617H26.9262C27.3586 21.5617 27.7591 21.79 27.9767 22.167C28.1943 22.5438 28.1943 23.0058 27.9767 23.38L24.0557 30.1779ZM41.4401 35.6858C41.2094 36.084 40.7663 36.3096 40.3074 36.2591L27.5205 34.8363C27.1172 34.7912 26.7618 34.547 26.5787 34.1833C26.3956 33.8198 26.4062 33.3896 26.6104 33.0393L26.6185 33.0261L31.7253 24.1763L31.7332 24.163C31.9374 23.81 32.3035 23.5844 32.7095 23.5631C33.1154 23.5419 33.5027 23.7251 33.7441 24.0516L41.3712 34.4196C41.6444 34.7912 41.6709 35.2875 41.4428 35.6858H41.4401Z" fill="#E81899"/>
</g>
<defs>
<clipPath id="clip0_115_14681">
<rect width="145.532" height="40" fill="white" transform="translate(0.773438)"/>
</clipPath>
</defs>
</svg>
