<svg width="155" height="40" viewBox="0 0 155 40" fill="none" xmlns="http://www.w3.org/2000/svg">
<g clip-path="url(#clip0_115_14690)">
<path fill-rule="evenodd" clip-rule="evenodd" d="M66.8859 15.953H73.6724C74.2717 15.953 74.7541 15.4269 74.6805 14.8136C74.6187 14.2991 74.1637 13.9218 73.6455 13.9218H65.2088C64.6502 13.9218 64.1932 14.3787 64.1932 14.9375V25.0937C64.1932 25.6524 64.6502 26.1094 65.2088 26.1094H73.6724C74.2717 26.1094 74.7541 25.583 74.6805 24.9697C74.6187 24.4554 74.1637 24.0781 73.6455 24.0781H66.8859C66.5205 24.0781 66.2243 23.7819 66.2243 23.4165V21.6926C66.2243 21.3273 66.5205 21.0311 66.8859 21.0311H71.9796C72.5789 21.0311 73.0614 20.505 72.9877 19.8918C72.9259 19.3772 72.4709 18.9999 71.9529 18.9999H66.8859C66.5205 18.9999 66.2243 18.7038 66.2243 18.3384V16.6145C66.2243 16.2492 66.5205 15.953 66.8859 15.953ZM55.2082 15.953C56.3424 15.953 57.2903 16.3594 58.0689 17.1548C58.2552 17.3411 58.5091 17.4427 58.7968 17.4427C59.3554 17.4427 59.8125 16.9856 59.8125 16.427C59.8125 16.1393 59.6771 15.8684 59.3892 15.6145C58.1874 14.4804 56.7825 13.9218 55.2082 13.9218C53.5324 13.9218 52.0936 14.5144 50.8918 15.7162C49.707 16.901 49.1146 18.3398 49.1146 20.0156C49.1146 21.6914 49.707 23.1302 50.8918 24.332C52.0936 25.5168 53.5324 26.1094 55.2082 26.1094C56.8841 26.1094 58.3228 25.5168 59.5078 24.332C59.914 23.9257 59.914 23.2825 59.5078 22.8932C59.1183 22.487 58.4753 22.487 58.0689 22.8932C57.2735 23.6888 56.3255 24.0781 55.2082 24.0781C54.091 24.0781 53.1263 23.6888 52.3306 22.8932C51.535 22.0977 51.1458 21.1328 51.1458 20.0156C51.1458 18.8984 51.535 17.9505 52.3306 17.1548C53.1263 16.3594 54.091 15.953 55.2082 15.953ZM88.3043 24.0781H81.5461C81.1801 24.0781 80.8834 23.7814 80.8834 23.4154V14.9641C80.8834 14.4458 80.5059 13.9908 79.9914 13.9292C79.3781 13.8557 78.8521 14.3382 78.8521 14.9375V25.0937C78.8521 25.6524 79.3091 26.1094 79.8678 26.1094H88.3312C88.9307 26.1094 89.4132 25.583 89.3395 24.9697C89.2776 24.4554 88.8226 24.0781 88.3043 24.0781ZM131.041 13.9218H120.911C120.312 13.9218 119.83 14.4481 119.903 15.0613C119.965 15.5758 120.42 15.953 120.938 15.953H124.312C124.678 15.953 124.974 16.2492 124.974 16.6147V25.0937C124.974 25.6932 125.5 26.1756 126.114 26.102C126.628 26.04 127.005 25.585 127.005 25.0668V16.6147C127.005 16.2492 127.301 15.953 127.667 15.953H131.068C131.667 15.953 132.15 15.4269 132.076 14.8136C132.014 14.2991 131.559 13.9218 131.041 13.9218ZM136.408 13.9218C135.849 13.9218 135.392 14.3787 135.392 14.9375V25.0937C135.392 25.6524 135.849 26.1094 136.408 26.1094C136.967 26.1094 137.424 25.6524 137.424 25.0937V14.9375C137.424 14.3787 136.967 13.9218 136.408 13.9218ZM116.086 19.8971C115.155 19.3046 113.903 18.9999 112.328 18.9999C110.246 18.9999 109.197 18.4921 109.197 17.4764C109.197 16.4608 110.246 15.953 112.328 15.953C113.479 15.953 114.58 16.1731 115.629 16.5963C116.238 16.7825 116.662 16.5624 116.899 15.97C117.102 15.4453 116.831 14.9375 116.272 14.6836C115.104 14.1757 113.801 13.9218 112.328 13.9218C110.788 13.9218 109.552 14.2435 108.588 14.8697C107.64 15.4961 107.166 16.3762 107.166 17.4764C107.166 18.6445 107.64 19.5416 108.571 20.134C109.502 20.7264 110.754 21.0311 112.328 21.0311C114.41 21.0311 115.46 21.5389 115.46 22.5546C115.46 23.5702 114.41 24.0781 112.328 24.0781H111.821C110.771 24.0781 109.671 23.8581 108.537 23.4347C108.012 23.2487 107.47 23.4856 107.25 24.0443C107.047 24.5691 107.352 25.1783 107.876 25.3646C109.045 25.8553 110.348 26.1094 111.821 26.1094H112.328C113.869 26.1094 115.104 25.7877 116.052 25.1613C117.017 24.5351 117.491 23.6548 117.491 22.5546C117.491 21.3866 117.017 20.4895 116.086 19.8971ZM95.3383 15.953H102.126C102.726 15.953 103.208 15.4269 103.135 14.8136C103.073 14.2991 102.618 13.9218 102.1 13.9218H93.6629C93.1041 13.9218 92.6471 14.3787 92.6471 14.9375V25.0937C92.6471 25.6524 93.1041 26.1094 93.6629 26.1094H102.126C102.726 26.1094 103.208 25.583 103.135 24.9697C103.073 24.4554 102.618 24.0781 102.1 24.0781H95.3383C94.9739 24.0781 94.6784 23.7826 94.6784 23.4183V21.6912C94.6784 21.3266 94.9739 21.0311 95.3383 21.0311H100.434C101.033 21.0311 101.515 20.505 101.442 19.8918C101.38 19.3772 100.925 18.9999 100.407 18.9999H95.3383C94.9739 18.9999 94.6784 18.7045 94.6784 18.34V16.6129C94.6784 16.2484 94.9739 15.953 95.3383 15.953ZM38.0395 20.2231C38.0358 20.3451 37.8697 20.3773 37.8217 20.2649C37.8012 20.2164 37.7801 20.1677 37.7587 20.119C37.7196 20.0299 37.7305 19.9264 37.789 19.8485C37.801 19.8325 37.8256 19.8003 37.855 19.7619C37.934 19.6587 38.0478 19.6741 38.0478 19.7886C38.0478 19.9389 38.0443 20.0691 38.0395 20.2231ZM37.1656 17.8365C37.031 18.0789 36.686 18.09 36.5365 17.8563C36.5133 17.8202 36.49 17.7841 36.4664 17.7478C35.9278 16.9208 35.308 16.109 34.6157 15.3201C34.4458 15.1264 34.5847 14.8224 34.8425 14.8222H34.8487C36.4664 14.8222 37.3145 15.2218 37.5733 15.7098C37.7893 16.1179 37.7231 16.8316 37.1656 17.8365ZM36.804 26.2962C36.7173 26.517 36.6265 26.7363 36.531 26.9536C36.5162 26.9835 36.5022 27.0138 36.4868 27.0435C35.8914 28.1895 34.8923 29.092 33.5572 29.72C33.2576 29.8607 32.9299 29.5866 33.0191 29.2679C33.4624 27.6812 33.7979 25.9605 34.0154 24.1566C34.0559 23.8202 34.2218 23.5114 34.4782 23.2897C35.0272 22.8147 35.5399 22.3404 36.0116 21.8695L36.0167 21.8641C36.2488 21.6326 36.6447 21.7322 36.7392 22.0463C37.2052 23.5953 37.2311 25.0381 36.804 26.2962ZM33.1749 32.0248C33.0391 32.1699 32.9005 32.3134 32.7592 32.4546C32.5131 32.7004 32.2612 32.9382 32.0037 33.1678C31.8414 33.3124 31.5958 33.1315 31.6877 32.9343C31.7139 32.878 31.7399 32.8213 31.7658 32.7641C31.874 32.5256 31.9784 32.281 32.08 32.0317C32.1041 31.9729 32.1548 31.929 32.2164 31.9132C32.4724 31.8482 32.722 31.7765 32.9651 31.6981C33.1622 31.6347 33.3166 31.8736 33.1749 32.0248ZM30.5098 30.5924C29.9709 30.6705 29.4041 30.721 28.8112 30.7419C27.3645 30.7925 25.8349 30.6677 24.2635 30.3784C24.072 30.3432 24.0352 30.0841 24.2088 29.9963C24.5516 29.8228 24.8945 29.6454 25.2373 29.4638C27.6416 28.1894 29.885 26.7964 31.8488 25.3681C31.9961 25.261 32.199 25.3874 32.1691 25.5671C31.8968 27.2039 31.5197 28.7448 31.0461 30.1435C30.9654 30.3818 30.7589 30.5563 30.5098 30.5924ZM29.9541 32.7731C28.665 35.3085 27.0774 36.7319 25.5385 36.7033C23.8659 36.6735 22.1981 34.9317 20.963 31.9249L20.9616 31.9215C20.8832 31.7307 20.9733 31.5122 21.1624 31.4301C21.1755 31.4242 21.1886 31.4186 21.2017 31.4127C21.2828 31.3775 21.3738 31.3711 21.4591 31.3952C23.7694 32.0435 26.0457 32.3819 28.1784 32.3819C28.4102 32.3819 28.6404 32.378 28.8686 32.37C29.1357 32.3604 29.3987 32.3454 29.657 32.3249C29.8965 32.3059 30.0631 32.5589 29.9541 32.7731ZM22.3204 37.5945C21.554 37.693 20.7762 37.7434 19.9908 37.7434C16.481 37.7434 13.124 36.7488 10.2419 34.8928C10.0436 34.7649 10.1278 34.4572 10.3635 34.4464C10.4124 34.4441 10.458 34.4416 10.4982 34.4392C11.2307 34.3915 12.0338 34.2843 12.904 34.1166C14.755 33.7605 16.8127 33.1497 18.9672 32.3272C19.1603 32.2535 19.376 32.3493 19.4546 32.5405C19.4551 32.5417 19.4555 32.5428 19.456 32.5439C20.2909 34.5767 21.3185 36.1128 22.4724 37.0899C22.663 37.2516 22.5683 37.5627 22.3204 37.5945ZM11.8783 24.9427C13.4695 23.647 15.3338 22.3542 17.3789 21.1303C17.4228 23.746 17.7096 26.2572 18.2172 28.5256C17.4587 28.2021 16.7025 27.8459 15.9529 27.4566C14.5009 26.702 13.1348 25.8568 11.8783 24.9427ZM6.93001 31.9513C6.55041 31.2351 7.04101 29.5762 9.53332 27.0548L9.53456 27.0536C9.79482 26.7907 9.76986 26.3592 9.47932 26.1303C9.37947 26.0519 9.28032 25.9726 9.18188 25.8932C8.93366 25.6926 8.57443 25.7111 8.34905 25.9368C8.29965 25.9862 8.26282 26.0234 8.25202 26.0345C7.00614 27.3133 6.13417 28.4971 5.6457 29.5618C5.50725 29.8635 5.08906 29.8961 4.90599 29.6192C2.97245 26.6963 1.93388 23.2713 1.93388 19.6863C1.93388 18.4046 2.06702 17.1433 2.32605 15.9182C2.36517 15.7328 2.62667 15.7209 2.68156 15.9022C3.05619 17.1391 3.66595 18.4184 4.50852 19.7121C5.64269 21.4539 7.13839 23.1283 8.91082 24.6642C9.51579 25.1884 10.1548 25.6955 10.8212 26.1847C12.172 27.1759 13.64 28.0908 15.2017 28.9022C15.894 29.2619 16.5682 29.6052 17.2586 29.9161C17.643 30.0891 18.0805 30.1026 18.4728 29.9485C18.7984 29.821 19.1263 29.6884 19.4562 29.5505C19.8149 29.4009 20.0094 29.0098 19.9144 28.6329C19.9025 28.5858 19.8931 28.5479 19.8878 28.5256C19.3441 26.2374 19.0419 23.6615 19.0063 20.9635L19.0052 20.964C19.0049 20.932 19.005 20.8994 19.0047 20.867C19.0031 20.7195 19.004 20.571 19.0013 20.4239C19.0004 20.3769 19.0019 20.2975 19.0024 20.2504C19.0027 20.2316 19.0024 20.213 19.0024 20.1944C19.0026 20.1944 19.0029 20.1942 19.0031 20.1942C19.004 20.0253 19.0052 19.8566 19.0082 19.6872C19.0165 19.2244 19.0332 18.7649 19.0571 18.3092C19.0567 18.3094 19.0566 18.3096 19.0562 18.3097C19.2239 15.054 19.7759 11.9948 20.6542 9.42138C20.7355 9.18325 20.6086 8.92476 20.3704 8.8435C20.1383 8.76418 19.9064 8.68841 19.6748 8.61582C19.4406 8.54234 19.1902 8.66875 19.1111 8.90122C18.1591 11.6959 17.5717 15.0115 17.415 18.5201C17.395 18.9652 17.1528 19.3702 16.7695 19.5974C14.6914 20.8289 12.783 22.1345 11.1344 23.4505C10.7909 23.7247 10.3003 23.7143 9.96815 23.4262C8.31576 21.9936 6.92505 20.4375 5.87374 18.823C3.80776 15.6506 3.31681 12.6621 4.4917 10.4093C4.49489 10.404 4.49772 10.3985 4.50073 10.3934C4.65051 10.1448 4.80631 9.89959 4.96849 9.65774C6.31848 7.8708 8.83115 6.83524 12.1635 6.71821C12.3744 6.71078 12.5867 6.70706 12.8009 6.70706C14.8449 6.70706 17.0386 7.04434 19.2696 7.68808L19.2701 7.68755C19.3189 7.70172 19.3678 7.71641 19.4167 7.73075C19.4544 7.74191 19.4921 7.75235 19.5298 7.76368C19.5298 7.76351 19.5296 7.76386 19.5298 7.76368C20.0454 7.91771 20.5624 8.08857 21.08 8.27482C21.08 8.275 21.0802 8.27464 21.08 8.27482C21.0921 8.27907 21.1043 8.2835 21.1163 8.28774C21.2513 8.33643 21.386 8.38636 21.5207 8.43717C21.5629 8.45311 21.6052 8.46922 21.6473 8.48551C21.6879 8.50109 21.7284 8.51614 21.7691 8.53189L21.7686 8.5326C22.8581 8.95433 23.9468 9.44475 25.0218 10.0035C27.1027 11.0846 29.0074 12.3519 30.6649 13.7422C27.5016 14.4669 23.8246 15.8649 20.1277 17.7497C19.9572 17.8368 19.845 18.0082 19.8342 18.1994C19.8212 18.4285 19.8042 18.8892 19.792 19.2553C19.7844 19.4852 20.0275 19.6374 20.2311 19.5305L20.2332 19.5292C23.8935 17.6072 27.5466 16.1706 30.6837 15.4115C31.2701 15.2696 31.6496 14.7064 31.5673 14.1089C31.5096 13.6914 31.4446 13.2805 31.3727 12.8768C31.2824 12.3698 31.0048 11.9163 30.5951 11.6044C29.1258 10.4851 27.5065 9.45839 25.7731 8.55757C24.6049 7.95065 23.4196 7.41879 22.2317 6.9652C21.9777 6.86817 21.8688 6.5679 22.0014 6.33048C23.2252 4.14128 24.6807 2.91522 26.0987 2.91522C26.1133 2.91522 26.128 2.91522 26.1427 2.91557C27.8153 2.94549 29.4831 4.68712 30.7182 7.69393C31.3433 9.21601 31.8278 10.9713 32.1588 12.8788C32.1571 12.8772 32.1553 12.8758 32.1537 12.8742C32.295 13.6882 32.4088 14.5296 32.4933 15.3927C32.486 15.3973 32.4782 15.4014 32.471 15.406C32.4809 15.4161 32.4913 15.4261 32.5014 15.4364C32.6415 16.8847 32.7006 18.3928 32.673 19.9317C32.6556 20.9051 32.6038 21.865 32.5198 22.8043C30.2821 24.6126 27.5154 26.4123 24.4742 28.024C23.4748 28.5537 22.4755 29.0468 21.486 29.5008C21.4706 29.5078 21.4554 29.5148 21.44 29.5218C21.3644 29.5564 21.2886 29.5914 21.213 29.6256C21.2123 29.6254 21.2118 29.6252 21.2112 29.6251C20.3913 29.996 19.5792 30.3391 18.7805 30.6525C18.7807 30.6526 18.7807 30.653 18.7809 30.6532C18.7358 30.6709 18.691 30.6879 18.646 30.7054C18.5899 30.7274 18.5337 30.749 18.4778 30.7706C18.3438 30.8219 18.2103 30.8725 18.0771 30.9223C18.0405 30.9359 18.0037 30.9503 17.967 30.9637C17.8054 31.0237 17.6446 31.082 17.4844 31.1393C17.4644 31.1464 17.4444 31.154 17.4245 31.1611C17.4242 31.1609 17.424 31.1609 17.4238 31.1608C15.7123 31.7703 14.0819 32.2308 12.5961 32.5168C9.00572 33.208 7.31509 32.6777 6.93001 31.9513ZM9.50871 4.9796C12.5476 2.8035 16.1788 1.62932 19.9908 1.62932C20.997 1.62932 21.9902 1.71165 22.9635 1.87223C23.2241 1.91525 23.3116 2.24793 23.1037 2.41099C22.1606 3.15034 21.2844 4.24432 20.5089 5.66301C20.3196 6.00914 19.9183 6.17839 19.5387 6.07146C16.9695 5.34821 14.4418 5.00793 12.1064 5.0899C11.2448 5.12018 10.429 5.20746 9.66257 5.34875C9.44728 5.3884 9.33078 5.1069 9.50871 4.9796ZM34.2951 18.1396C34.2898 17.9326 34.5554 17.8443 34.6754 18.0128C34.8229 18.2198 34.965 18.4278 35.1012 18.6369C35.2821 18.9149 35.4505 19.1913 35.607 19.4659C35.7046 19.6371 35.6812 19.8518 35.5484 19.9974C35.3376 20.2289 35.1088 20.4683 34.8604 20.7165C34.7698 20.807 34.6773 20.8976 34.5832 20.9885C34.4663 21.1014 34.2703 21.0154 34.2767 20.8529C34.2882 20.5566 34.2967 20.2594 34.302 19.9607C34.313 19.3488 34.3103 18.7414 34.2951 18.1396ZM32.4225 6.59003C32.5359 6.69768 32.6482 6.80709 32.7592 6.9181C34.4992 8.65813 35.8395 10.6914 36.7357 12.9057C36.8262 13.1289 36.6366 13.3627 36.3995 13.32C35.8809 13.2269 35.2974 13.1853 34.6513 13.1961C34.2036 13.2035 33.8144 12.8898 33.7358 12.4489C33.3847 10.4803 32.8771 8.66185 32.2252 7.07479C32.188 6.98432 32.1505 6.89491 32.1124 6.80638C32.0296 6.61322 32.27 6.44521 32.4225 6.59003ZM39.2519 15.5919C38.474 11.8956 36.6447 8.49949 33.9111 5.76587C30.1929 2.04768 25.2494 0.00012207 19.9908 0.00012207C14.7325 0.00012207 9.7888 2.04768 6.07061 5.76587C5.16625 6.67023 4.36192 7.64736 3.66063 8.68345C3.45207 8.96106 3.26529 9.25425 3.09922 9.56108C1.27757 12.5881 0.304688 16.0625 0.304688 19.6863C0.304688 24.9448 2.35243 29.8883 6.07061 33.6065C9.7888 37.3247 14.7325 39.3726 19.9908 39.3726C25.2494 39.3726 30.1929 37.3247 33.9111 33.6065C35.666 31.8518 37.0482 29.8239 38.0191 27.6189C38.1377 27.3746 38.2413 27.1244 38.3304 26.8693C39.2142 24.6109 39.6772 22.1843 39.6772 19.6863C39.6772 18.3113 39.5359 16.9585 39.2627 15.6429C39.259 15.6259 39.2556 15.6089 39.2519 15.5919ZM149.524 21.5389H145.8C145.45 21.5389 145.231 21.1599 145.407 20.8567L147.275 17.6327C147.45 17.3299 147.887 17.3307 148.062 17.6338L149.918 20.858C150.092 21.1609 149.873 21.5389 149.524 21.5389ZM154.423 24.6029L148.549 14.4127C148.126 13.7525 147.212 13.7525 146.789 14.4127L140.915 24.6029C140.844 24.7306 140.809 24.8582 140.799 25.006C140.762 25.5815 141.209 26.0958 141.786 26.1091C142.188 26.1184 142.501 25.9157 142.743 25.4832L143.652 23.9043C143.77 23.6977 143.99 23.5702 144.229 23.5702H151.093C151.331 23.5702 151.551 23.6977 151.67 23.9043L152.578 25.4832C152.807 25.8929 153.116 26.0965 153.489 26.1087C154.059 26.1276 154.542 25.6641 154.542 25.0937C154.542 24.9414 154.508 24.789 154.423 24.6029Z" fill="#B9B9B9"/>
</g>
<defs>
<clipPath id="clip0_115_14690">
<rect width="154.386" height="40" fill="white" transform="translate(0.304688)"/>
</clipPath>
</defs>
</svg>
