<svg width="185" height="40" viewBox="0 0 185 40" fill="none" xmlns="http://www.w3.org/2000/svg">
<g clip-path="url(#clip0_115_14699)">
<path d="M10.2543 30.2979L5.28125 39.1489H38.8283L33.9395 30.2979H10.2543Z" fill="white"/>
<path d="M17.1641 0L0.390625 30.2979H10.2524L22.1372 8.93617L17.1641 0Z" fill="white"/>
<path d="M27.0294 0L22.1406 8.85106L34.0254 30.2128H43.8872L27.0294 0Z" fill="white"/>
<path d="M22.0524 17.6171C25.0025 17.6171 27.3626 20.0852 27.3626 23.149C27.3626 26.2128 25.0025 28.6809 22.0524 28.6809C19.1023 28.6809 16.7422 26.2128 16.7422 23.149C16.7422 20.0852 19.1866 17.6171 22.0524 17.6171Z" fill="white"/>
<path d="M60.07 6.0426C64.453 6.0426 67.2345 8.59579 67.4874 12.6809H64.3687C64.2001 10.2979 62.5986 8.93622 60.07 8.93622C57.2041 8.93622 55.3498 10.4681 55.3498 12.766C55.3498 14.6383 56.3612 15.8298 58.5528 16.3405L62.3458 17.2766C66.0545 18.1277 67.9931 20.2554 67.9931 23.6596C67.9931 27.9149 64.7901 30.6383 59.9857 30.6383C55.3498 30.6383 52.2311 28.0852 52.0625 24.0001H55.1812C55.2655 26.2979 57.0355 27.7447 59.9857 27.7447C63.0201 27.7447 64.9587 26.2979 64.9587 23.9149C64.9587 22.0426 63.9472 20.8511 61.84 20.3405L58.047 19.4894C54.3383 18.6383 52.3997 16.3405 52.3997 12.9362C52.2311 8.76601 55.3498 6.0426 60.07 6.0426Z" fill="white"/>
<path d="M69.6797 30.2128V6.0426H72.6298V16.6809C73.6413 14.8937 75.4956 13.7873 77.8557 13.7873C81.8173 13.7873 83.6717 16.4256 83.6717 20.5107V30.383H80.7216V21.1064C80.7216 17.8724 79.2043 16.5107 77.0128 16.5107C74.147 16.5107 72.6298 18.7235 72.6298 21.4469V30.2128H69.6797Z" fill="white"/>
<path d="M96.1438 23.3192V22.4681L92.1823 22.8085C89.5693 23.0638 88.4736 24.0851 88.4736 25.7021C88.4736 27.4043 89.6536 28.2553 91.5922 28.2553C94.4581 28.2553 96.1438 26.383 96.1438 23.3192ZM85.5234 25.7873C85.5234 22.8085 87.6307 20.9362 91.2551 20.6809L96.1438 20.2553V19.8298C96.1438 17.1064 94.6267 16.1702 92.5194 16.1702C89.9908 16.1702 88.6421 17.3617 88.6421 19.2341H86.0292C86.0292 15.9149 88.6421 13.7021 92.688 13.7021C96.481 13.7021 99.094 15.8298 99.094 20.1702V30.2979H96.5653L96.2281 27.6596C95.4695 29.5319 93.3623 30.6383 90.8336 30.6383C87.4621 30.6383 85.5234 28.6809 85.5234 25.7873Z" fill="white"/>
<path d="M110.389 16.851H109.041C106.259 16.851 104.489 18.6383 104.489 21.7021V30.2127H101.539V14.2127H104.321L104.489 16.6808C105.079 14.9787 106.681 13.8723 108.788 13.8723C109.294 13.8723 109.799 13.9574 110.389 14.0425V16.851Z" fill="white"/>
<path d="M122.696 22.1277C122.696 18.8086 120.842 16.4256 117.808 16.4256C114.773 16.4256 113.003 18.8086 113.003 22.1277C113.003 25.4469 114.773 27.8298 117.808 27.8298C120.842 27.8298 122.696 25.532 122.696 22.1277ZM109.969 22.2979C109.969 17.3618 112.75 13.7022 117.302 13.7022C119.662 13.7022 121.685 14.8086 122.696 16.766V6.0426H125.647V30.2979H123.034L122.781 27.4043C121.769 29.6171 119.662 30.7235 117.218 30.7235C112.666 30.6383 109.969 27.149 109.969 22.2979Z" fill="white"/>
<path d="M130.278 20.766H139.213C139.213 18.1277 137.527 16.3404 134.914 16.3404C132.301 16.2553 130.615 17.8724 130.278 20.766ZM127.328 22.2128C127.328 17.1915 130.363 13.7021 134.83 13.7021C139.213 13.7021 142.079 16.8511 142.079 21.617V22.8085H130.11C130.363 26.2128 132.048 28.0851 134.998 28.0851C137.274 28.0851 138.791 27.0639 139.297 25.2766H142.079C141.32 28.766 138.707 30.6383 134.914 30.6383C130.447 30.6383 127.328 27.2341 127.328 22.2128Z" fill="white"/>
<path d="M157.503 14.1277V30.2128H154.89L154.553 27.7447C153.71 29.4468 151.603 30.5532 149.327 30.5532C145.703 30.5532 143.68 28 143.68 24.0851V14.1277H146.63V23.149C146.63 26.6383 148.063 27.9149 150.339 27.9149C153.036 27.9149 154.553 26.1277 154.553 22.6383V14.1277H157.503Z" fill="white"/>
<path d="M160.203 30.2979V14.1277H162.816L163.069 16.2553C163.828 14.7234 165.513 13.7021 167.705 13.7021C170.065 13.7021 171.835 14.9787 172.594 16.9362C173.352 14.8936 175.207 13.7021 177.567 13.7021C181.107 13.7021 183.214 16 183.214 19.7447V30.2979H180.348V20.5107C180.348 17.9575 179 16.5107 176.892 16.5107C174.617 16.5107 173.184 18.1277 173.184 20.766V30.2979H170.234V20.4256C170.234 17.8724 168.885 16.5107 166.862 16.5107C164.586 16.5107 163.153 18.1277 163.153 20.6809V30.2128H160.203V30.2979Z" fill="white"/>
</g>
<defs>
<clipPath id="clip0_115_14699">
<rect width="183.75" height="40" fill="white" transform="translate(0.390625)"/>
</clipPath>
</defs>
</svg>
