<svg width="174" height="40" viewBox="0 0 174 40" fill="none" xmlns="http://www.w3.org/2000/svg">
<g clip-path="url(#clip0_115_14713)">
<path fill-rule="evenodd" clip-rule="evenodd" d="M0.179688 20.3054C0.179688 31.0818 8.91548 39.8176 19.6919 39.8176C30.4683 39.8176 39.2047 31.0818 39.2047 20.3054C39.2047 9.52901 30.4683 0.793213 19.6919 0.793213C8.91548 0.793213 0.179688 9.52901 0.179688 20.3054Z" fill="#0C0C4F"/>
<path fill-rule="evenodd" clip-rule="evenodd" d="M11.0837 15.7087L11.5653 14.2206C11.6632 13.9179 11.9021 13.6824 12.2058 13.5895L13.7012 13.1296C13.9083 13.0664 13.9099 12.7744 13.7046 12.7079L12.216 12.2262C11.9138 12.1283 11.6783 11.8894 11.5849 11.5856L11.1256 10.0902C11.0624 9.88378 10.7704 9.88154 10.7038 10.0875L10.2221 11.5756C10.1243 11.8776 9.88533 12.1131 9.58157 12.2066L8.08619 12.6659C7.87921 12.7296 7.87697 13.0211 8.08283 13.0877L9.57149 13.5693C9.87359 13.6673 10.1091 13.9067 10.2025 14.2105L10.6618 15.7052C10.725 15.9123 11.017 15.9145 11.0837 15.7087Z" fill="#FAFAFA"/>
<path fill-rule="evenodd" clip-rule="evenodd" d="M34.7229 14.8427C34.1065 14.1533 33.1443 13.7651 32.209 13.606C31.2661 13.4531 30.2776 13.4673 29.3467 13.6327C27.4634 13.9513 25.7525 14.7311 24.2603 15.693C23.4853 16.1652 22.8245 16.7115 22.1398 17.2679C21.81 17.5492 21.5092 17.849 21.1959 18.1443L20.34 18.9959C19.4101 19.968 18.4934 20.8533 17.6065 21.5873C16.716 22.3178 15.8834 22.8726 15.063 23.2601C14.243 23.6495 13.3657 23.8785 12.2222 23.9152C11.0887 23.9552 9.74758 23.7506 8.31309 23.413C6.87088 23.0768 5.35643 22.5975 3.66406 22.1852C4.25457 23.8235 5.14381 25.2712 6.28548 26.5945C7.44054 27.8949 8.88286 29.0802 10.7357 29.8597C12.5618 30.6565 14.8566 30.9424 17.0024 30.5109C19.1538 30.0969 21.0418 29.1012 22.5678 27.9499C24.0978 26.7868 25.3356 25.4618 26.3791 24.0845C26.6672 23.7039 26.8196 23.4909 27.0281 23.1934L27.6042 22.34C28.0047 21.812 28.3692 21.2109 28.7655 20.6879C29.5426 19.5924 30.3086 18.4982 31.1988 17.4901C31.6469 16.9788 32.1192 16.4897 32.677 16.0198C32.9552 15.7903 33.2558 15.5658 33.5887 15.3636C33.9266 15.1454 34.2835 14.9747 34.7229 14.8427Z" fill="url(#paint0_linear_115_14713)"/>
<path fill-rule="evenodd" clip-rule="evenodd" d="M34.7229 14.8423C34.0606 13.1711 32.8295 11.7644 31.1769 10.7263C29.5343 9.69972 27.253 9.17579 24.9924 9.62241C23.8756 9.83842 22.7937 10.2542 21.8441 10.808C20.8989 11.3596 20.0519 12.0235 19.3187 12.7359C18.9527 13.0932 18.6204 13.4659 18.2903 13.8409L17.4347 14.9316L16.1134 16.6874C14.4288 18.9465 12.6147 21.594 9.63782 22.3785C6.7153 23.1487 5.44775 22.4666 3.66406 22.1849C3.9902 23.0269 4.3942 23.8446 4.94189 24.564C5.47937 25.2979 6.11422 25.9873 6.90352 26.5781C7.30239 26.8619 7.72352 27.142 8.19123 27.3796C8.65681 27.6092 9.15892 27.8111 9.69484 27.9632C10.7609 28.2554 11.961 28.3577 13.123 28.2006C14.2857 28.0454 15.3969 27.6771 16.3682 27.1877C17.3466 26.703 18.199 26.1128 18.9601 25.4897C20.4731 24.2334 21.65 22.8451 22.644 21.4417C23.144 20.7402 23.5979 20.0253 24.0177 19.3102L24.5117 18.459C24.6627 18.2101 24.8155 17.9598 24.9707 17.7266C25.5967 16.7897 26.209 16.0385 26.9527 15.4747C27.6861 14.8963 28.7073 14.469 30.072 14.3696C31.431 14.2693 32.9999 14.4548 34.7229 14.8423Z" fill="#FAFAFA"/>
<path fill-rule="evenodd" clip-rule="evenodd" d="M27.3672 28.7273C27.3672 29.9547 28.3627 30.9502 29.5901 30.9502C30.8175 30.9502 31.8119 29.9547 31.8119 28.7273C31.8119 27.4999 30.8175 26.5044 29.5901 26.5044C28.3627 26.5044 27.3672 27.4999 27.3672 28.7273Z" fill="#EC796B"/>
<path d="M170.714 14.8495V12.6049C170.714 12.5159 170.642 12.4438 170.553 12.4438H157.764C157.674 12.4438 157.602 12.5159 157.602 12.6049V14.8495H162.8V29.3703H165.516V14.8495H170.714Z" fill="white"/>
<path d="M144.239 12.4438C144.15 12.4438 144.078 12.5159 144.078 12.6049V29.2091C144.078 29.2981 144.15 29.3703 144.239 29.3703H155.002C155.091 29.3703 155.163 29.2981 155.163 29.2091V26.9884H146.794V21.6688H153.708V19.3346H146.794V14.8257H154.567V12.6049C154.567 12.5159 154.495 12.4438 154.406 12.4438H144.239Z" fill="white"/>
<path d="M137.995 29.2718L138.053 29.3703H140.139C140.229 29.3703 140.3 29.2981 140.3 29.2091V12.6049C140.3 12.5159 140.229 12.4438 140.139 12.4438H137.633V24.1663C137.198 23.4734 136.692 22.7107 136.117 21.8782C135.384 20.7949 134.596 19.6958 133.752 18.5812C132.924 17.4507 132.08 16.3598 131.219 15.3087C130.374 14.2407 129.576 13.3068 128.825 12.5073L128.765 12.4438H126.802C126.713 12.4438 126.641 12.5159 126.641 12.6049V29.2091C126.641 29.2981 126.713 29.3703 126.802 29.3703H129.309V16.8124C129.651 17.2172 130.016 17.6658 130.404 18.1584C130.926 18.8238 131.465 19.5372 132.02 20.2985L132.021 20.2993C132.576 21.0441 133.131 21.8218 133.686 22.6305V22.6316L133.687 22.6326C134.259 23.4417 134.805 24.2427 135.329 25.0357L135.33 25.0372C135.853 25.8138 136.336 26.5662 136.78 27.2946V27.2959L136.781 27.2972C137.242 28.0274 137.646 28.6855 137.995 29.2718Z" fill="white"/>
<path d="M123.364 12.7809L123.425 12.7135C123.52 12.6101 123.446 12.4438 123.306 12.4438H120.332L120.273 12.5137C119.878 12.9716 119.387 13.5095 118.801 14.1279C118.229 14.7313 117.617 15.3664 116.967 16.0334C116.316 16.7001 115.657 17.367 114.99 18.0337C114.456 18.5544 113.959 19.0342 113.497 19.4733V12.4438H110.942C110.853 12.4438 110.781 12.5159 110.781 12.6049V29.2091C110.781 29.2981 110.853 29.3703 110.942 29.3703H113.497V21.6915C114.058 22.0586 114.631 22.4881 115.216 22.9806L115.217 22.9813L115.218 22.982C115.928 23.5653 116.622 24.204 117.3 24.8986L117.302 24.9002L117.304 24.9018C117.998 25.5799 118.652 26.2975 119.267 27.0546L119.268 27.0554L119.269 27.0561C119.884 27.7974 120.427 28.5378 120.899 29.2772L120.959 29.3703H123.856C123.98 29.3703 124.058 29.2363 123.996 29.1288L123.962 29.0685C123.527 28.3116 122.981 27.5169 122.325 26.6846C121.686 25.8535 120.998 25.0386 120.263 24.2399C119.529 23.4411 118.777 22.69 118.01 21.9865C117.315 21.3494 116.651 20.8023 116.017 20.3461C116.556 19.8206 117.127 19.2562 117.731 18.6532C118.398 17.985 119.066 17.3089 119.734 16.6248C120.418 15.9248 121.071 15.2486 121.691 14.5961L121.692 14.5953L121.693 14.5944C122.314 13.9265 122.87 13.322 123.364 12.7809Z" fill="white"/>
<path fill-rule="evenodd" clip-rule="evenodd" d="M95.3642 12.317C95.2752 12.317 95.2031 12.3892 95.2031 12.4781V29.2194C95.2031 29.3083 95.2752 29.3804 95.3643 29.3804H97.6654V23.2253H101.027C101.406 23.6781 101.774 24.1519 102.133 24.6466L102.135 24.6484L102.136 24.6503C102.725 25.4218 103.268 26.2265 103.768 27.0646L103.768 27.0655C104.22 27.8072 104.615 28.5407 104.952 29.2641L105.007 29.3805H107.729C107.847 29.3805 107.924 29.2603 107.876 29.1541C107.563 28.4679 107.223 27.7959 106.847 27.1412C106.333 26.2263 105.772 25.3205 105.161 24.4239C104.811 23.9115 104.454 23.4136 104.089 22.9305C105.106 22.6199 105.909 22.0584 106.49 21.2434L106.491 21.2427C107.189 20.2562 107.534 19.0961 107.534 17.7711C107.534 16.8605 107.376 16.0274 107.056 15.2746C106.734 14.5108 106.25 13.8774 105.606 13.3777C104.966 12.8753 104.177 12.5557 103.248 12.4122C103.031 12.3723 102.808 12.3484 102.576 12.3403C102.352 12.3248 102.155 12.3169 101.988 12.3169C101.282 12.3169 100.575 12.3168 99.87 12.3167C98.3675 12.3166 96.8661 12.3165 95.3642 12.317ZM105.026 17.7711C105.026 18.2109 104.953 18.6437 104.806 19.0702C104.662 19.4799 104.432 19.839 104.115 20.1492C103.814 20.4431 103.417 20.6515 102.915 20.768C102.756 20.8042 102.584 20.8299 102.4 20.8446C102.219 20.8598 102.058 20.8671 101.919 20.8671H97.6654V14.6751H101.919C102.058 14.6751 102.218 14.6825 102.399 14.6975L102.404 14.6979L102.408 14.6981C102.587 14.7052 102.753 14.7302 102.907 14.7721L102.912 14.7735L102.917 14.7746C103.417 14.8835 103.813 15.0911 104.113 15.3913L104.114 15.392L104.115 15.3929C104.432 15.7027 104.661 16.0654 104.806 16.4831V16.4841C104.953 16.9025 105.026 17.3312 105.026 17.7711Z" fill="white"/>
<path fill-rule="evenodd" clip-rule="evenodd" d="M89.1567 27.1357L89.1572 27.1369C89.3962 27.8222 89.6511 28.5232 89.9219 29.24L89.9711 29.3703H92.6952C92.807 29.3703 92.8849 29.2592 92.8466 29.1541C92.2516 27.5192 91.6509 25.8864 91.0381 24.2581C90.4814 22.7628 89.9325 21.3467 89.3914 20.0099C88.8661 18.6731 88.3409 17.3997 87.8155 16.1896C87.2884 14.9597 86.7338 13.7421 86.1559 12.5353C86.1292 12.4794 86.0727 12.4438 86.0107 12.4438H83.838C83.776 12.4438 83.7195 12.4794 83.6927 12.5353C83.1148 13.7421 82.5603 14.9598 82.0332 16.1897C81.5079 17.3993 80.9748 18.6723 80.4339 20.0089L80.4331 20.0108C79.9081 21.3472 79.3672 22.7629 78.8105 24.258C78.1978 25.8863 77.5971 27.5192 77.002 29.1541C76.9638 29.2592 77.0416 29.3703 77.1535 29.3703H79.7613L79.8123 29.3701L79.8721 29.306C80.5012 28.6306 81.2043 27.9678 81.9818 27.3177L81.9825 27.317L81.9833 27.3163C82.7638 26.6499 83.5776 26.0318 84.4246 25.4622L84.4264 25.4608L84.4284 25.4596C85.2627 24.87 86.1024 24.341 86.9474 23.8723L86.9484 23.8718L86.9494 23.8713C87.2537 23.6981 87.5533 23.5367 87.8483 23.3872L88.4182 25.0155L88.4186 25.0167C88.6726 25.731 88.9186 26.4373 89.1567 27.1357ZM86.2261 19.1066L86.2266 19.1079L86.2272 19.1093C86.4567 19.6902 86.6861 20.2807 86.9156 20.8811C86.8984 20.8886 86.881 20.8965 86.8631 20.9046C86.0557 21.2723 85.1878 21.7478 84.2598 22.3298C83.3713 22.8871 82.49 23.4924 81.6156 24.146L81.9858 23.0886C82.4756 21.7145 82.9654 20.3876 83.4551 19.1079C83.9055 17.9539 84.3744 16.8439 84.862 15.7779C85.3353 16.8435 85.7901 17.953 86.2261 19.1066Z" fill="white"/>
<path d="M77.6662 14.8495V12.6049C77.6662 12.5159 77.594 12.4438 77.505 12.4438H64.7159C64.6269 12.4438 64.5547 12.5159 64.5547 12.6049V14.8495H69.7526V29.2091C69.7526 29.2981 69.8247 29.3703 69.9137 29.3703H72.3072C72.3962 29.3703 72.4683 29.2981 72.4683 29.2091V14.8495H77.6662Z" fill="white"/>
<path d="M52.8232 29.1644C51.8381 28.7445 51.0183 28.1448 50.3687 27.3654L50.3678 27.3643C49.7246 26.5746 49.3066 25.6434 49.1126 24.5765C49.1029 24.5231 49.1152 24.4681 49.1466 24.4239C49.1779 24.3796 49.2259 24.3499 49.2795 24.3414L51.4457 24.0001C51.5483 23.9839 51.6462 24.0483 51.6722 24.1488C51.9354 25.1717 52.4772 25.9656 53.2988 26.541C54.1325 27.1116 55.1158 27.4 56.2569 27.4C56.9971 27.4 57.6586 27.2856 58.2442 27.0605C58.8366 26.828 59.2964 26.5017 59.6321 26.0857C59.9623 25.6766 60.1289 25.1922 60.1289 24.6228C60.1289 24.2693 60.0663 23.9801 59.9501 23.7475L59.9471 23.7411C59.8338 23.4934 59.6757 23.2866 59.4721 23.118L59.4663 23.113C59.2618 22.9305 59.0271 22.7762 58.7609 22.6505C58.4887 22.5219 58.2048 22.416 57.9093 22.3326L57.9067 22.3318L53.5854 21.0484C53.1044 20.9041 52.6393 20.7237 52.1901 20.5071L52.1889 20.5065L52.1876 20.5058C51.7315 20.2778 51.323 19.9962 50.963 19.6607L50.9618 19.6596C50.5967 19.3112 50.3067 18.8964 50.0924 18.4184L50.0919 18.4172C49.8742 17.9232 49.7686 17.3488 49.7686 16.6996C49.7686 15.6586 50.0377 14.7598 50.5847 14.0139C51.1341 13.2677 51.8749 12.7004 52.7999 12.3109C53.7235 11.9221 54.7597 11.7338 55.9051 11.7418C57.0662 11.7498 58.1105 11.9581 59.0342 12.3712C59.9649 12.776 60.737 13.3606 61.3468 14.1246C61.9657 14.8902 62.3785 15.8039 62.5883 16.8605C62.5988 16.9137 62.5875 16.9688 62.5568 17.0136C62.5261 17.0583 62.4787 17.0887 62.4253 17.0981L60.2003 17.4866C60.1475 17.4959 60.0932 17.4837 60.0494 17.4527C60.0057 17.4219 59.9761 17.3749 59.967 17.322C59.8546 16.6628 59.6051 16.1036 59.2214 15.6387L59.2193 15.636C58.8399 15.1599 58.364 14.7951 57.7885 14.5409L57.7865 14.5401C57.2098 14.2779 56.5745 14.1419 55.878 14.1343C55.2102 14.1267 54.6134 14.2329 54.0844 14.449C53.5539 14.6657 53.1399 14.9647 52.8346 15.3427L52.8334 15.3442C52.5339 15.7079 52.3848 16.1255 52.3848 16.6053C52.3848 17.0818 52.5206 17.4494 52.7777 17.7273C53.0553 18.0192 53.3964 18.2548 53.8043 18.433C54.2366 18.6106 54.6565 18.7568 55.0639 18.8722L58.2895 19.8022C58.6654 19.9062 59.0948 20.0494 59.5768 20.2312C60.0814 20.4184 60.568 20.6822 61.0363 21.0213C61.5184 21.3623 61.9143 21.8177 62.2253 22.3823C62.5449 22.9544 62.698 23.6657 62.698 24.5051C62.698 25.3487 62.5276 26.107 62.1814 26.775C61.8453 27.4387 61.3736 27.9962 60.7685 28.4459L60.767 28.447C60.1652 28.886 59.4686 29.2175 58.6796 29.443C57.8904 29.6765 57.0472 29.7925 56.151 29.7925C54.9271 29.7925 53.8167 29.5845 52.8232 29.1644Z" fill="white"/>
</g>
<defs>
<linearGradient id="paint0_linear_115_14713" x1="34.5568" y1="14.2563" x2="-16.201" y2="40.6646" gradientUnits="userSpaceOnUse">
<stop stop-color="#EC796B"/>
<stop offset="1" stop-color="#D672EF"/>
</linearGradient>
<clipPath id="clip0_115_14713">
<rect width="173.659" height="40" fill="white" transform="translate(0.140625)"/>
</clipPath>
</defs>
</svg>
