<svg width="24" height="25" viewBox="0 0 24 25" fill="none" xmlns="http://www.w3.org/2000/svg">
<path d="M15 9.01318L9 15.0128M15 15.0132L9 9.01357" stroke="white" stroke-width="1.5" stroke-linecap="round" stroke-linejoin="round"/>
<path d="M2.5 12.0132C2.5 7.53484 2.5 5.29567 3.89124 3.90442C5.28249 2.51318 7.52166 2.51318 12 2.51318C16.4783 2.51318 18.7175 2.51318 20.1088 3.90442C21.5 5.29567 21.5 7.53484 21.5 12.0132C21.5 16.4915 21.5 18.7307 20.1088 20.122C18.7175 21.5132 16.4783 21.5132 12 21.5132C7.52166 21.5132 5.28249 21.5132 3.89124 20.122C2.5 18.7307 2.5 16.4915 2.5 12.0132Z" stroke="white" stroke-width="1.5"/>
</svg>
