<svg width="24" height="25" viewBox="0 0 24 25" fill="none" xmlns="http://www.w3.org/2000/svg">
<path opacity="0.4" fill-rule="evenodd" clip-rule="evenodd" d="M5.96345 13.2632H6.03655C6.7757 13.2632 7.38321 13.2632 7.87471 13.3099C8.38544 13.3585 8.84779 13.4627 9.26834 13.7204C9.68586 13.9763 10.0369 14.3273 10.2928 14.7449C10.5505 15.1654 10.6547 15.6278 10.7033 16.1385C10.75 16.63 10.75 17.2375 10.75 17.9766V18.0498C10.75 18.7889 10.75 19.3964 10.7033 19.8879C10.6547 20.3986 10.5505 20.861 10.2928 21.2815C10.0369 21.6991 9.68586 22.0501 9.26834 22.306C8.84779 22.5637 8.38544 22.6679 7.87471 22.7165C7.38322 22.7632 6.7757 22.7632 6.03656 22.7632H5.96344C5.2243 22.7632 4.61678 22.7632 4.12529 22.7165C3.61456 22.6679 3.15221 22.5637 2.73166 22.306C2.31414 22.0501 1.9631 21.6991 1.70725 21.2815C1.44953 20.861 1.34527 20.3986 1.29671 19.8879C1.24998 19.3964 1.24999 18.7889 1.25 18.0497V17.9767C1.24999 17.2375 1.24998 16.63 1.29671 16.1385C1.34527 15.6278 1.44953 15.1654 1.70725 14.7449C1.9631 14.3273 2.31414 13.9763 2.73166 13.7204C3.15221 13.4627 3.61456 13.3585 4.12529 13.3099C4.61679 13.2632 5.22431 13.2632 5.96345 13.2632Z" fill="white"/>
<path fill-rule="evenodd" clip-rule="evenodd" d="M17.9635 13.2632H18.0365C18.7757 13.2632 19.3832 13.2632 19.8747 13.3099C20.3854 13.3585 20.8478 13.4627 21.2683 13.7204C21.6859 13.9763 22.0369 14.3273 22.2928 14.7449C22.5505 15.1654 22.6547 15.6278 22.7033 16.1385C22.75 16.63 22.75 17.2375 22.75 17.9766V18.0498C22.75 18.7889 22.75 19.3964 22.7033 19.8879C22.6547 20.3986 22.5505 20.861 22.2928 21.2815C22.0369 21.6991 21.6859 22.0501 21.2683 22.306C20.8478 22.5637 20.3854 22.6679 19.8747 22.7165C19.3832 22.7632 18.7757 22.7632 18.0366 22.7632H17.9634C17.2243 22.7632 16.6168 22.7632 16.1253 22.7165C15.6146 22.6679 15.1522 22.5637 14.7317 22.306C14.3141 22.0501 13.9631 21.6991 13.7072 21.2815C13.4495 20.861 13.3453 20.3986 13.2967 19.8879C13.25 19.3964 13.25 18.7889 13.25 18.0497V17.9767C13.25 17.2375 13.25 16.63 13.2967 16.1385C13.3453 15.6278 13.4495 15.1654 13.7072 14.7449C13.9631 14.3273 14.3141 13.9763 14.7317 13.7204C15.1522 13.4627 15.6146 13.3585 16.1253 13.3099C16.6168 13.2632 17.2243 13.2632 17.9635 13.2632Z" fill="white"/>
<path fill-rule="evenodd" clip-rule="evenodd" d="M5.96345 1.26318H6.03655C6.7757 1.26317 7.38321 1.26316 7.87471 1.30989C8.38544 1.35845 8.84779 1.46271 9.26834 1.72043C9.68586 1.97628 10.0369 2.32732 10.2928 2.74484C10.5505 3.16539 10.6547 3.62774 10.7033 4.13847C10.75 4.62996 10.75 5.23748 10.75 5.97662V6.04974C10.75 6.78888 10.75 7.3964 10.7033 7.88789C10.6547 8.39862 10.5505 8.86097 10.2928 9.28152C10.0369 9.69904 9.68586 10.0501 9.26834 10.306C8.84779 10.5637 8.38544 10.6679 7.87471 10.7165C7.38322 10.7632 6.7757 10.7632 6.03656 10.7632H5.96344C5.2243 10.7632 4.61678 10.7632 4.12529 10.7165C3.61456 10.6679 3.15221 10.5637 2.73166 10.306C2.31414 10.0501 1.9631 9.69904 1.70725 9.28152C1.44953 8.86097 1.34527 8.39862 1.29671 7.88789C1.24998 7.39639 1.24999 6.78888 1.25 6.04973V5.97663C1.24999 5.23749 1.24998 4.62997 1.29671 4.13847C1.34527 3.62774 1.44953 3.16539 1.70725 2.74484C1.9631 2.32732 2.31414 1.97628 2.73166 1.72043C3.15221 1.46271 3.61456 1.35845 4.12529 1.30989C4.61679 1.26316 5.22431 1.26317 5.96345 1.26318Z" fill="white"/>
<path opacity="0.4" fill-rule="evenodd" clip-rule="evenodd" d="M17.9635 1.26318H18.0365C18.7757 1.26317 19.3832 1.26316 19.8747 1.30989C20.3854 1.35845 20.8478 1.46271 21.2683 1.72043C21.6859 1.97628 22.0369 2.32732 22.2928 2.74484C22.5505 3.16539 22.6547 3.62774 22.7033 4.13847C22.75 4.62996 22.75 5.23748 22.75 5.97662V6.04974C22.75 6.78888 22.75 7.3964 22.7033 7.88789C22.6547 8.39862 22.5505 8.86097 22.2928 9.28152C22.0369 9.69904 21.6859 10.0501 21.2683 10.306C20.8478 10.5637 20.3854 10.6679 19.8747 10.7165C19.3832 10.7632 18.7757 10.7632 18.0366 10.7632H17.9634C17.2243 10.7632 16.6168 10.7632 16.1253 10.7165C15.6146 10.6679 15.1522 10.5637 14.7317 10.306C14.3141 10.0501 13.9631 9.69904 13.7072 9.28152C13.4495 8.86097 13.3453 8.39862 13.2967 7.88789C13.25 7.39639 13.25 6.78888 13.25 6.04973V5.97663C13.25 5.23749 13.25 4.62997 13.2967 4.13847C13.3453 3.62774 13.4495 3.16539 13.7072 2.74484C13.9631 2.32732 14.3141 1.97628 14.7317 1.72043C15.1522 1.46271 15.6146 1.35845 16.1253 1.30989C16.6168 1.26316 17.2243 1.26317 17.9635 1.26318Z" fill="white"/>
</svg>
